<?xml version="1.0" encoding="UTF-8"?>
<svg version="1.1" xmlns="http://www.w3.org/2000/svg" width="157" height="128">
<path d="M0 0 C8.36028633 6.67067466 8.36028633 6.67067466 10.9765625 10.75 C10.9765625 11.41 10.9765625 12.07 10.9765625 12.75 C11.6365625 12.75 12.2965625 12.75 12.9765625 12.75 C14.6265625 15.72 16.2765625 18.69 17.9765625 21.75 C20.49747028 21.7772367 23.01807707 21.79695207 25.5390625 21.8125 C26.24353516 21.82087891 26.94800781 21.82925781 27.67382812 21.83789062 C32.21681048 21.85882603 36.49441142 21.49800682 40.9765625 20.75 C41.1015625 23.625 41.1015625 23.625 40.9765625 26.75 C38.9765625 28.75 38.9765625 28.75 35.3515625 28.875 C34.2378125 28.83375 33.1240625 28.7925 31.9765625 28.75 C31.9765625 28.09 31.9765625 27.43 31.9765625 26.75 C29.0065625 26.75 26.0365625 26.75 22.9765625 26.75 C22.9765625 27.41 22.9765625 28.07 22.9765625 28.75 C23.57984375 28.87117188 24.183125 28.99234375 24.8046875 29.1171875 C25.60390625 29.28476562 26.403125 29.45234375 27.2265625 29.625 C28.40992188 29.86863281 28.40992188 29.86863281 29.6171875 30.1171875 C31.9826135 30.75162295 33.88631328 31.4756814 35.9765625 32.75 C38.7021647 38.2012044 39.0926547 45.11786182 37.30078125 50.94921875 C36.60121849 52.58374216 35.79897505 54.17370928 34.9765625 55.75 C34.3165625 55.75 33.6565625 55.75 32.9765625 55.75 C32.91597656 55.00234375 32.85539063 54.2546875 32.79296875 53.484375 C32.70917969 52.49953125 32.62539062 51.5146875 32.5390625 50.5 C32.45785156 49.52546875 32.37664062 48.5509375 32.29296875 47.546875 C32.02581666 45.18538247 31.62284282 43.03098935 30.9765625 40.75 C28.68962027 40.24620971 28.68962027 40.24620971 25.9765625 40.75 C21.99746997 43.7343194 21.1523084 45.52234437 20.44140625 50.48828125 C20.14267963 54.24069902 20.02922897 57.98674165 19.9765625 61.75 C12.74224651 62.63070797 5.6347254 62.87570502 -1.6484375 62.8125 C-2.65261719 62.80798828 -3.65679687 62.80347656 -4.69140625 62.79882812 C-7.13548221 62.78718967 -9.5794257 62.7708424 -12.0234375 62.75 C-10.49771094 59.42364118 -9.08999246 57.79436998 -6.0234375 55.75 C-12.3205354 55.18724611 -12.3205354 55.18724611 -17.8984375 57.75 C-18.9503125 58.74 -18.9503125 58.74 -20.0234375 59.75 C-21.0134375 59.75 -22.0034375 59.75 -23.0234375 59.75 C-23.0234375 60.41 -23.0234375 61.07 -23.0234375 61.75 C-24.35677083 63.08333333 -25.69010417 64.41666667 -27.0234375 65.75 C-27.5184375 67.235 -27.5184375 67.235 -28.0234375 68.75 C-26.78799194 68.5190564 -26.78799194 68.5190564 -25.52758789 68.28344727 C-21.67394567 67.69679582 -17.84463991 67.42349894 -13.95703125 67.21484375 C-12.82226097 67.15037804 -12.82226097 67.15037804 -11.66456604 67.08460999 C-10.07374586 66.99488067 -8.48283614 66.90672642 -6.8918457 66.82006836 C-4.46478934 66.68771006 -2.03805735 66.5503237 0.38867188 66.41210938 C1.94008769 66.32522609 3.4915195 66.23862786 5.04296875 66.15234375 C5.76392227 66.11173325 6.48487579 66.07112274 7.22767639 66.02928162 C10.81512424 65.83534472 14.38377497 65.70492056 17.9765625 65.75 C16.5559014 77.11528884 8.03546124 85.63281308 -0.4609375 92.5625 C-14.03086242 102.62132547 -28.38603412 105.02282432 -44.953125 103.4765625 C-59.74502332 101.20418392 -72.23014851 93.75756691 -81.87890625 82.4140625 C-83.0234375 80.75 -83.0234375 80.75 -83.0234375 78.75 C-83.6834375 78.75 -84.3434375 78.75 -85.0234375 78.75 C-85.19617188 78.20005371 -85.36890625 77.65010742 -85.546875 77.08349609 C-86.85212179 73.73431067 -87.80392095 71.32137021 -91.1640625 69.74707031 C-93.78164806 69.132802 -96.35631999 68.71410494 -99.0234375 68.375 C-100.81582374 68.10102096 -102.60752813 67.82253484 -104.3984375 67.5390625 C-105.18992187 67.43287598 -105.98140625 67.32668945 -106.796875 67.21728516 C-109.13825949 66.72590249 -110.9397002 65.90783006 -113.0234375 64.75 C-112.6934375 63.76 -112.3634375 62.77 -112.0234375 61.75 C-111.80017936 59.69106379 -111.61637991 57.62766347 -111.4609375 55.5625 C-111.37714844 54.47582031 -111.29335937 53.38914062 -111.20703125 52.26953125 C-111.14644531 51.43808594 -111.08585937 50.60664062 -111.0234375 49.75 C-110.0334375 49.75 -109.0434375 49.75 -108.0234375 49.75 C-108.1884375 48.88375 -108.3534375 48.0175 -108.5234375 47.125 C-107.94317671 43.20823965 -107.41055787 42.82494462 -104.3984375 40.5 C-101.81763387 38.66080661 -100.00948831 37.74667379 -96.89453125 37.00390625 C-93.7322856 36.00490907 -93.7322856 36.00490907 -92.66015625 32.73046875 C-92.34691406 31.47878906 -92.03367187 30.22710937 -91.7109375 28.9375 C-87.22218565 13.25146961 -76.46439321 2.27872697 -62.37915039 -5.58520508 C-42.65178133 -16.00338436 -17.65725171 -13.14028034 0 0 Z M-38.0234375 -7.25 C-38.0234375 -6.92 -38.0234375 -6.59 -38.0234375 -6.25 C-35.7134375 -6.25 -33.4034375 -6.25 -31.0234375 -6.25 C-31.0234375 -6.58 -31.0234375 -6.91 -31.0234375 -7.25 C-33.3334375 -7.25 -35.6434375 -7.25 -38.0234375 -7.25 Z M-40.0234375 19.75 C-40.0234375 20.08 -40.0234375 20.41 -40.0234375 20.75 C-32.4334375 21.08 -24.8434375 21.41 -17.0234375 21.75 C-18.0134375 23.4 -19.0034375 25.05 -20.0234375 26.75 C-19.4459375 26.46125 -18.8684375 26.1725 -18.2734375 25.875 C-17.5309375 25.50375 -16.7884375 25.1325 -16.0234375 24.75 C-15.4046875 24.399375 -14.7859375 24.04875 -14.1484375 23.6875 C-11.48269198 22.5114358 -8.89911923 22.14213842 -6.0234375 21.75 C-6.5184375 20.76 -6.5184375 20.76 -7.0234375 19.75 C-12.25932178 18.42636845 -17.59713686 18.60121374 -22.9609375 18.625 C-23.82912109 18.62113281 -24.69730469 18.61726563 -25.59179688 18.61328125 C-30.50948357 18.62071539 -35.17558806 18.9189401 -40.0234375 19.75 Z M-25.0234375 30.75 C-26.66020007 32.7100281 -26.66020007 32.7100281 -28.0234375 34.75 C-24.90146272 33.4410428 -24.90146272 33.4410428 -23.0234375 30.75 C-23.6834375 30.75 -24.3434375 30.75 -25.0234375 30.75 Z M-13.0234375 35.75 C-13.3534375 37.4 -13.6834375 39.05 -14.0234375 40.75 C-8.4134375 40.75 -2.8034375 40.75 2.9765625 40.75 C2.9765625 41.74 2.9765625 42.73 2.9765625 43.75 C2.1721875 44.018125 1.3678125 44.28625 0.5390625 44.5625 C-0.3065625 44.954375 -1.1521875 45.34625 -2.0234375 45.75 C-2.3534375 46.74 -2.6834375 47.73 -3.0234375 48.75 C3.63202042 49.29330269 7.43490994 48.52304004 12.9765625 44.75 C12.9765625 44.09 12.9765625 43.43 12.9765625 42.75 C14.2965625 42.09 15.6165625 41.43 16.9765625 40.75 C16.6465625 39.1 16.3165625 37.45 15.9765625 35.75 C12.08116793 35.55252109 8.18524234 35.36876971 4.2890625 35.1875 C3.18626953 35.13142578 2.08347656 35.07535156 0.94726562 35.01757812 C-0.6527832 34.94506836 -0.6527832 34.94506836 -2.28515625 34.87109375 C-3.26444092 34.8239624 -4.24372559 34.77683105 -5.25268555 34.72827148 C-7.98136455 34.74967006 -10.37422813 35.12205492 -13.0234375 35.75 Z M-32.0234375 40.75 C-32.0234375 41.08 -32.0234375 41.41 -32.0234375 41.75 C-27.4034375 41.42 -22.7834375 41.09 -18.0234375 40.75 C-17.6934375 39.43 -17.3634375 38.11 -17.0234375 36.75 C-22.08933542 36.75 -27.26676565 39.12577059 -32.0234375 40.75 Z M-44.6484375 43.3125 C-49.56479771 48.35823811 -51.06853649 53.84985475 -51.0234375 60.75 C-50.55894251 63.81566695 -49.87581287 66.77020842 -49.0234375 69.75 C-47.7034375 69.75 -46.3834375 69.75 -45.0234375 69.75 C-44.60771484 68.39455078 -44.60771484 68.39455078 -44.18359375 67.01171875 C-43.82136719 65.83222656 -43.45914063 64.65273437 -43.0859375 63.4375 C-42.54646484 61.67986328 -42.54646484 61.67986328 -41.99609375 59.88671875 C-41.35971471 57.83446023 -40.70290371 55.78839863 -40.0234375 53.75 C-34.7434375 53.75 -29.4634375 53.75 -24.0234375 53.75 C-24.0234375 52.43 -24.0234375 51.11 -24.0234375 49.75 C-28.6434375 49.75 -33.2634375 49.75 -38.0234375 49.75 C-37.6934375 47.44 -37.3634375 45.13 -37.0234375 42.75 C-40.3803685 41.59905223 -41.53570349 41.45968214 -44.6484375 43.3125 Z M-67.0234375 49.75 C-66.6934375 50.41 -66.3634375 51.07 -66.0234375 51.75 C-63.69178716 52.08498301 -63.69178716 52.08498301 -61.0234375 51.75 C-58.70966603 49.85415891 -58.70966603 49.85415891 -57.0234375 47.75 C-60.63372919 47.75 -63.58150426 48.71092582 -67.0234375 49.75 Z " fill="#232424" transform="translate(116.0234375,17.25)"/>
<path d="M0 0 C0 5.61 0 11.22 0 17 C6.34838481 18.69253407 6.34838481 18.69253407 12.54296875 19.37890625 C13.68862305 19.43014648 13.68862305 19.43014648 14.85742188 19.48242188 C16.01081055 19.52206055 16.01081055 19.52206055 17.1875 19.5625 C26.57418162 19.92680556 26.57418162 19.92680556 31 21 C29.63016497 24.16115776 29.0109362 24.9927092 26 27 C25.505 28.485 25.505 28.485 25 30 C23.4375 31.6875 23.4375 31.6875 22 33 C24.35953094 35.35953094 25.77895617 35.49141413 29 36 C29 36.33 29 36.66 29 37 C25.34279543 38.05496286 21.69314372 39.07671407 18 40 C21.96 40 25.92 40 30 40 C30.495 39.01 30.495 39.01 31 38 C31 38.99 31 39.98 31 41 C31.66 41 32.32 41 33 41 C33.495 40.01 33.495 40.01 34 39 C39.61 39.33 45.22 39.66 51 40 C50.67 40.99 50.34 41.98 50 43 C50 42.34 50 41.68 50 41 C44.72 41 39.44 41 34 41 C35.485 41.495 35.485 41.495 37 42 C37 42.99 37 43.98 37 45 C37.99 45 38.98 45 40 45 C39.67 45.99 39.34 46.98 39 48 C35.7 48 32.4 48 29 48 C29.495 49.3921875 29.495 49.3921875 30 50.8125 C31 54 31 54 31 57 C28 59 28 59 25 59 C25 59.66 25 60.32 25 61 C23 63 23 63 21 65 C20.505 66.485 20.505 66.485 20 68 C20.82363037 67.8460376 21.64726074 67.6920752 22.49584961 67.53344727 C26.34949183 66.94679582 30.17879759 66.67349894 34.06640625 66.46484375 C35.20117653 66.40037804 35.20117653 66.40037804 36.35887146 66.33460999 C37.94969164 66.24488067 39.54060136 66.15672642 41.1315918 66.07006836 C43.55864816 65.93771006 45.98538015 65.8003237 48.41210938 65.66210938 C49.96352519 65.57522609 51.514957 65.48862786 53.06640625 65.40234375 C53.78735977 65.36173325 54.50831329 65.32112274 55.25111389 65.27928162 C58.83856174 65.08534472 62.40721247 64.95492056 66 65 C64.5793389 76.36528884 56.05889874 84.88281308 47.5625 91.8125 C40.99388685 96.67304446 33.94207825 100.10080738 26 102 C26 100.68 26 99.36 26 98 C27.98 98 29.96 98 32 98 C32 97.34 32 96.68 32 96 C29.68682039 96.30742903 27.37446648 96.62107702 25.0625 96.9375 C23.13083984 97.19853516 23.13083984 97.19853516 21.16015625 97.46484375 C18.14533687 97.66162423 18.14533687 97.66162423 17 99 C15.5444063 99.09858603 14.08392081 99.12972143 12.625 99.125 C11.83351562 99.12757812 11.04203125 99.13015625 10.2265625 99.1328125 C8 99 8 99 5 98 C3.35487697 97.76578866 1.7089296 97.53734281 0.0625 97.3125 C-6.60966663 96.16181886 -12.12468097 93.26064826 -18 90 C-18 89.34 -18 88.68 -18 88 C-18.70125 87.773125 -19.4025 87.54625 -20.125 87.3125 C-23.75677921 85.65451384 -26.07408515 83.72642066 -29 81 C-29.33 80.01 -29.66 79.02 -30 78 C-28.6078125 78.495 -28.6078125 78.495 -27.1875 79 C-24.07970709 80.14967004 -24.07970709 80.14967004 -21 80 C-21.66 79.01 -22.32 78.02 -23 77 C-22.875 74.9375 -22.875 74.9375 -22 73 C-20.25 71.6875 -20.25 71.6875 -18 71 C-16.32345271 71.27942455 -14.65391846 71.60828247 -13 72 C-12.01 71.505 -12.01 71.505 -11 71 C-13.97 70.67 -16.94 70.34 -20 70 C-20 69.67 -20 69.34 -20 69 C-14.555 68.505 -14.555 68.505 -9 68 C-9 68.99 -9 69.98 -9 71 C-7.515 70.505 -7.515 70.505 -6 70 C-5.34 70.66 -4.68 71.32 -4 72 C-3.5875 71.505 -3.175 71.01 -2.75 70.5 C-1 69 -1 69 3 69 C3.19335938 68.09636719 3.38671875 67.19273438 3.5859375 66.26171875 C3.84632812 65.08222656 4.10671875 63.90273437 4.375 62.6875 C4.63023438 61.51574219 4.88546875 60.34398437 5.1484375 59.13671875 C6 56 6 56 8 53 C10.7885289 52.77892213 13.34653181 52.71892465 16.125 52.8125 C17.25615234 52.83280273 17.25615234 52.83280273 18.41015625 52.85351562 C20.27374127 52.88890015 22.13695978 52.94270833 24 53 C24 51.68 24 50.36 24 49 C19.38 49 14.76 49 10 49 C10 46.69 10 44.38 10 42 C7.0602001 42.32664443 5.27653503 42.79666542 2.875 44.5625 C0.34424013 47.85248784 -0.68850895 51.06552686 -2 55 C-5 51.25 -5 51.25 -5 49 C-5.66 49 -6.32 49 -7 49 C-7 48.34 -7 47.68 -7 47 C-7.88751953 47.23396484 -7.88751953 47.23396484 -8.79296875 47.47265625 C-16.64147627 49.4059754 -16.64147627 49.4059754 -21 48 C-20.04882866 46.8274869 -19.08882991 45.66212985 -18.125 44.5 C-17.59132813 43.8503125 -17.05765625 43.200625 -16.5078125 42.53125 C-16.01023437 42.0259375 -15.51265625 41.520625 -15 41 C-14.34 41 -13.68 41 -13 41 C-13 40.34 -13 39.68 -13 39 C-12.38125 38.938125 -11.7625 38.87625 -11.125 38.8125 C-8.72238859 38.171081 -8.72238859 38.171081 -7.75 35.4375 C-7.5025 34.633125 -7.255 33.82875 -7 33 C-8.11375 33 -9.2275 33 -10.375 33 C-14.15924924 33 -17.30219953 32.77848431 -21 32 C-21 31.34 -21 30.68 -21 30 C-21.78375 30.495 -22.5675 30.99 -23.375 31.5 C-26 33 -26 33 -28 33 C-29.125 29.25 -29.125 29.25 -28 27 C-29.65 27.33 -31.3 27.66 -33 28 C-33 21.36885412 -28.40648046 15.63840048 -24 11 C-23.34 11 -22.68 11 -22 11 C-22 10.34 -22 9.68 -22 9 C-21.34 9 -20.68 9 -20 9 C-20 8.34 -20 7.68 -20 7 C-17.734375 5.30859375 -17.734375 5.30859375 -14.75 3.4375 C-13.77546875 2.81746094 -12.8009375 2.19742187 -11.796875 1.55859375 C-7.00359716 -1.11252058 -5.59571128 -1.11914226 0 0 Z " fill="#585959" transform="translate(68,18)"/>
<path d="M0 0 C0.495 0.99 0.495 0.99 1 2 C0.34 2 -0.32 2 -1 2 C-1 3.98 -1 5.96 -1 8 C-0.21625 7.505 0.5675 7.01 1.375 6.5 C4 5 4 5 6 5 C6.66 5.66 7.32 6.32 8 7 C10.05396726 6.59070014 10.05396726 6.59070014 12 6 C12.495 6.495 12.495 6.495 13 7 C15.32817964 7.36760731 17.6618385 7.70241581 20 8 C19.25 10.4375 19.25 10.4375 18 13 C15.875 13.8125 15.875 13.8125 14 14 C14 14.66 14 15.32 14 16 C13.34 16 12.68 16 12 16 C11.505 17.485 11.505 17.485 11 19 C9.70644173 20.37195574 8.37701298 21.71182656 7 23 C8.81493293 25.22081212 8.81493293 25.22081212 11.375 25.3125 C14.4472087 24.94676087 15.65538552 23.9403706 18 22 C18.66 22 19.32 22 20 22 C20 22.66 20 23.32 20 24 C20.66 24 21.32 24 22 24 C25.51719811 30.42270959 26.65009591 37.71160078 26 45 C24.00390625 46.921875 24.00390625 46.921875 22 48 C21.34 47.34 20.68 46.68 20 46 C19.34 46 18.68 46 18 46 C18 45.01 18 44.02 18 43 C17.01 43.495 17.01 43.495 16 44 C16 44.99 16 45.98 16 47 C12.94152152 47.54372951 10.11227195 48 7 48 C6.01 48.495 6.01 48.495 5 49 C5 50.65 5 52.3 5 54 C5.99 54.495 5.99 54.495 7 55 C4.21176345 56.0326802 3.1322726 56.04509293 0.25 55.0625 C-0.86375 54.5365625 -0.86375 54.5365625 -2 54 C-2 54.66 -2 55.32 -2 56 C-1.443125 56.2475 -0.88625 56.495 -0.3125 56.75 C2.962679 58.52036703 5.82598804 60.71303645 8.33984375 63.46875 C14.00636725 68.69528462 22.27721686 70.56354896 29.6875 71.640625 C32 72 32 72 35 73 C36.53949329 73.09182942 38.08277855 73.13002352 39.625 73.125 C40.42164062 73.12757812 41.21828125 73.13015625 42.0390625 73.1328125 C44.00353536 73.21570074 44.00353536 73.21570074 45 72 C47.52195967 71.60056824 50.02963656 71.24920152 52.5625 70.9375 C53.62887695 70.80118164 53.62887695 70.80118164 54.71679688 70.66210938 C56.47738403 70.43760497 58.23863478 70.21831603 60 70 C59.505 71.485 59.505 71.485 59 73 C57.02 73 55.04 73 53 73 C53 74.32 53 75.64 53 77 C37.0112916 80.02358328 20.94845474 77.75419863 7.04296875 69.17578125 C1.30783374 65.18236987 -4.0086721 60.80309107 -8 55 C-8 54.34 -8 53.68 -8 53 C-8.66 53 -9.32 53 -10 53 C-10.17273438 52.45005371 -10.34546875 51.90010742 -10.5234375 51.33349609 C-11.82868429 47.98431067 -12.78048345 45.57137021 -16.140625 43.99707031 C-18.75821056 43.382802 -21.33288249 42.96410494 -24 42.625 C-25.79238624 42.35102096 -27.58409063 42.07253484 -29.375 41.7890625 C-30.16648437 41.68287598 -30.95796875 41.57668945 -31.7734375 41.46728516 C-34.11482199 40.97590249 -35.9162627 40.15783006 -38 39 C-37.67 38.01 -37.34 37.02 -37 36 C-36.77674186 33.94106379 -36.59294241 31.87766347 -36.4375 29.8125 C-36.35371094 28.72582031 -36.26992188 27.63914062 -36.18359375 26.51953125 C-36.12300781 25.68808594 -36.06242187 24.85664062 -36 24 C-35.01 24 -34.02 24 -33 24 C-33.165 23.13375 -33.33 22.2675 -33.5 21.375 C-32.90703378 17.37247804 -32.2505682 17.0175716 -29.125 14.6875 C-24.412586 11.46988399 -21.80017208 10.89258941 -16 11 C-15.67 10.01 -15.34 9.02 -15 8 C-14.67 8.66 -14.34 9.32 -14 10 C-12.35 10 -10.7 10 -9 10 C-8.87625 9.4225 -8.7525 8.845 -8.625 8.25 C-7.95166524 5.82599488 -7.44928906 4.07041295 -6 2 C-2.875 0.75 -2.875 0.75 0 0 Z " fill="#3A393A" transform="translate(41,43)"/>
<path d="M0 0 C0 5.61 0 11.22 0 17 C6.34838481 18.69253407 6.34838481 18.69253407 12.54296875 19.37890625 C13.68862305 19.43014648 13.68862305 19.43014648 14.85742188 19.48242188 C16.01081055 19.52206055 16.01081055 19.52206055 17.1875 19.5625 C26.57418162 19.92680556 26.57418162 19.92680556 31 21 C29.63016497 24.16115776 29.0109362 24.9927092 26 27 C25.505 28.485 25.505 28.485 25 30 C23.4375 31.6875 23.4375 31.6875 22 33 C24.35953094 35.35953094 25.77895617 35.49141413 29 36 C29 36.33 29 36.66 29 37 C25.34279543 38.05496286 21.69314372 39.07671407 18 40 C21.96 40 25.92 40 30 40 C30.495 39.01 30.495 39.01 31 38 C31 38.99 31 39.98 31 41 C31.66 41 32.32 41 33 41 C33.495 40.01 33.495 40.01 34 39 C39.61 39.33 45.22 39.66 51 40 C50.67 40.99 50.34 41.98 50 43 C50 42.34 50 41.68 50 41 C44.72 41 39.44 41 34 41 C35.485 41.495 35.485 41.495 37 42 C37 42.99 37 43.98 37 45 C37.99 45 38.98 45 40 45 C39.67 45.99 39.34 46.98 39 48 C35.7 48 32.4 48 29 48 C29.495 49.3921875 29.495 49.3921875 30 50.8125 C31 54 31 54 31 57 C28 59 28 59 25 59 C25 59.66 25 60.32 25 61 C23 63 23 63 21 65 C20.505 66.485 20.505 66.485 20 68 C20.78375 67.835 21.5675 67.67 22.375 67.5 C29.33049504 66.54062137 36.09647953 66.79938774 43 68 C42.505 69.485 42.505 69.485 42 71 C37.11465868 73.0158461 32.0939494 73.40083608 27 72 C26.67 71.67 26.34 71.34 26 71 C25.01 71.66 24.02 72.32 23 73 C23 72.34 23 71.68 23 71 C21.35 70.67 19.7 70.34 18 70 C17.63076923 63.6 17.63076923 63.6 19.5 60.5625 C19.995 60.046875 20.49 59.53125 21 59 C19.84133329 56.93902794 19.84133329 56.93902794 18 55 C15.50592748 54.3049261 15.50592748 54.3049261 12.8125 54.25 C11.46091797 54.16492188 11.46091797 54.16492188 10.08203125 54.078125 C9.05142578 54.03945312 9.05142578 54.03945312 8 54 C8 53.67 8 53.34 8 53 C13.28 53 18.56 53 24 53 C24 51.68 24 50.36 24 49 C19.38 49 14.76 49 10 49 C10 46.69 10 44.38 10 42 C7.0602001 42.32664443 5.27653503 42.79666542 2.875 44.5625 C0.34424013 47.85248784 -0.68850895 51.06552686 -2 55 C-5 51.25 -5 51.25 -5 49 C-5.66 49 -6.32 49 -7 49 C-7 48.34 -7 47.68 -7 47 C-7.88751953 47.23396484 -7.88751953 47.23396484 -8.79296875 47.47265625 C-16.64147627 49.4059754 -16.64147627 49.4059754 -21 48 C-20.04882866 46.8274869 -19.08882991 45.66212985 -18.125 44.5 C-17.59132813 43.8503125 -17.05765625 43.200625 -16.5078125 42.53125 C-16.01023437 42.0259375 -15.51265625 41.520625 -15 41 C-14.34 41 -13.68 41 -13 41 C-13 40.34 -13 39.68 -13 39 C-12.38125 38.938125 -11.7625 38.87625 -11.125 38.8125 C-8.72238859 38.171081 -8.72238859 38.171081 -7.75 35.4375 C-7.5025 34.633125 -7.255 33.82875 -7 33 C-8.11375 33 -9.2275 33 -10.375 33 C-14.15924924 33 -17.30219953 32.77848431 -21 32 C-21 31.34 -21 30.68 -21 30 C-21.78375 30.495 -22.5675 30.99 -23.375 31.5 C-26 33 -26 33 -28 33 C-29.125 29.25 -29.125 29.25 -28 27 C-29.65 27.33 -31.3 27.66 -33 28 C-33 21.36885412 -28.40648046 15.63840048 -24 11 C-23.34 11 -22.68 11 -22 11 C-22 10.34 -22 9.68 -22 9 C-21.34 9 -20.68 9 -20 9 C-20 8.34 -20 7.68 -20 7 C-17.734375 5.30859375 -17.734375 5.30859375 -14.75 3.4375 C-13.77546875 2.81746094 -12.8009375 2.19742187 -11.796875 1.55859375 C-7.00359716 -1.11252058 -5.59571128 -1.11914226 0 0 Z " fill="#666767" transform="translate(68,18)"/>
<path d="M0 0 C1.06025391 -0.02449219 2.12050781 -0.04898437 3.21289062 -0.07421875 C9.75125768 -0.09841999 16.02805053 0.31266336 21.4375 4.375 C22.5 8.125 22.5 8.125 22.4375 11.375 C22.7675 10.715 23.0975 10.055 23.4375 9.375 C24.0975 9.375 24.7575 9.375 25.4375 9.375 C26.4375 10.375 27.4375 11.375 28.4375 12.375 C30.53739652 13.55074711 30.53739652 13.55074711 32.4375 14.375 C31.7775 14.375 31.1175 14.375 30.4375 14.375 C33.98996591 20.52785058 33.98996591 20.52785058 39.25 25.0625 C39.971875 25.495625 40.69375 25.92875 41.4375 26.375 C42.125 29.5 42.125 29.5 42.4375 32.375 C43.4275 32.87 43.4275 32.87 44.4375 33.375 C44.4375 34.035 44.4375 34.695 44.4375 35.375 C43.303125 35.354375 42.16875 35.33375 41 35.3125 C37.62174326 34.95922523 37.62174326 34.95922523 36.4375 36.375 C40.7275 36.705 45.0175 37.035 49.4375 37.375 C49.4375 37.705 49.4375 38.035 49.4375 38.375 C40.5275 38.375 31.6175 38.375 22.4375 38.375 C22.4375 39.695 22.4375 41.015 22.4375 42.375 C21.7775 42.375 21.1175 42.375 20.4375 42.375 C20.4375 43.035 20.4375 43.695 20.4375 44.375 C19.7775 44.375 19.1175 44.375 18.4375 44.375 C18.4375 42.725 18.4375 41.075 18.4375 39.375 C16.1275 39.375 13.8175 39.375 11.4375 39.375 C10.8125 37.5 10.8125 37.5 10.4375 35.375 C11.0975 34.715 11.7575 34.055 12.4375 33.375 C13.08517793 30.80438689 13.08517793 30.80438689 13.4375 28.375 C14.159375 28.271875 14.88125 28.16875 15.625 28.0625 C18.49573062 27.50788921 18.49573062 27.50788921 20.9375 25.875 C23.50315201 24.33560879 25.49918772 23.7947589 28.4375 23.375 C24.13727852 22.54520402 20.12960572 22.27863305 15.75390625 22.34765625 C14.49642578 22.35990234 13.23894531 22.37214844 11.94335938 22.38476562 C9.31830346 22.41987038 6.69329731 22.45892136 4.06835938 22.50195312 C2.18020508 22.51838867 2.18020508 22.51838867 0.25390625 22.53515625 C-1.45623657 22.56041382 -1.45623657 22.56041382 -3.20092773 22.58618164 C-6.97094076 22.34934082 -9.97792582 21.5294316 -13.5625 20.375 C-13.61629226 17.41642591 -13.65607093 14.45882279 -13.6875 11.5 C-13.70425781 10.65824219 -13.72101563 9.81648438 -13.73828125 8.94921875 C-13.74472656 8.14355469 -13.75117187 7.33789062 -13.7578125 6.5078125 C-13.77352295 5.39237061 -13.77352295 5.39237061 -13.78955078 4.25439453 C-13.0453662 -1.90553332 -4.54517206 0.00538847 0 0 Z " fill="#454647" transform="translate(80.5625,14.625)"/>
<path d="M0 0 C8.36028633 6.67067466 8.36028633 6.67067466 10.9765625 10.75 C10.9765625 11.41 10.9765625 12.07 10.9765625 12.75 C11.6365625 12.75 12.2965625 12.75 12.9765625 12.75 C13.30269531 13.37648438 13.62882812 14.00296875 13.96484375 14.6484375 C14.40183594 15.46570313 14.83882813 16.28296875 15.2890625 17.125 C15.93294922 18.34316406 15.93294922 18.34316406 16.58984375 19.5859375 C17.94434974 22.01834043 17.94434974 22.01834043 20.9765625 23.75 C20.6465625 25.07 20.3165625 26.39 19.9765625 27.75 C18.4915625 27.255 18.4915625 27.255 16.9765625 26.75 C16.9765625 26.09 16.9765625 25.43 16.9765625 24.75 C15.8834375 24.935625 14.7903125 25.12125 13.6640625 25.3125 C9.9765625 25.75 9.9765625 25.75 6.9765625 24.75 C6.29630613 22.75458132 5.63165753 20.75382009 4.9765625 18.75 C-0.07193059 11.61247528 -6.22273022 6.58387034 -14.0234375 2.75 C-14.64645752 2.40727051 -15.26947754 2.06454102 -15.91137695 1.71142578 C-22.36335148 -1.5761025 -28.05828252 -1.7930896 -35.2109375 -1.625 C-36.79165039 -1.62306641 -36.79165039 -1.62306641 -38.40429688 -1.62109375 C-43.65242592 -1.56156866 -48.13032086 -1.34594917 -53.0234375 0.75 C-54.1784375 1.20375 -55.3334375 1.6575 -56.5234375 2.125 C-59.95708405 3.71919304 -62.89228355 5.63829152 -66.0234375 7.75 C-66.6834375 7.75 -67.3434375 7.75 -68.0234375 7.75 C-68.0234375 8.41 -68.0234375 9.07 -68.0234375 9.75 C-68.6834375 9.75 -69.3434375 9.75 -70.0234375 9.75 C-70.0234375 10.41 -70.0234375 11.07 -70.0234375 11.75 C-70.6834375 11.75 -71.3434375 11.75 -72.0234375 11.75 C-72.2709375 12.306875 -72.5184375 12.86375 -72.7734375 13.4375 C-74.0234375 15.75 -74.0234375 15.75 -75.9609375 18.125 C-80.12284539 23.42197368 -82.0353647 29.40508682 -84.0234375 35.75 C-85.68955655 35.792721 -87.35726635 35.79063832 -89.0234375 35.75 C-89.3534375 35.42 -89.6834375 35.09 -90.0234375 34.75 C-90.3534375 35.41 -90.6834375 36.07 -91.0234375 36.75 C-92.0134375 36.42 -93.0034375 36.09 -94.0234375 35.75 C-89.12896868 17.96758314 -80.39930982 5.02598059 -64.2109375 -4.5625 C-43.98543258 -15.85460184 -18.48179125 -13.75389116 0 0 Z M-38.0234375 -7.25 C-38.0234375 -6.92 -38.0234375 -6.59 -38.0234375 -6.25 C-35.7134375 -6.25 -33.4034375 -6.25 -31.0234375 -6.25 C-31.0234375 -6.58 -31.0234375 -6.91 -31.0234375 -7.25 C-33.3334375 -7.25 -35.6434375 -7.25 -38.0234375 -7.25 Z " fill="#225378" transform="translate(116.0234375,17.25)"/>
<path d="M0 0 C0 0.66 0 1.32 0 2 C0.66 2 1.32 2 2 2 C5.51719811 8.42270959 6.65009591 15.71160078 6 23 C4.00390625 24.921875 4.00390625 24.921875 2 26 C1.34 25.34 0.68 24.68 0 24 C-0.66 24 -1.32 24 -2 24 C-2 23.01 -2 22.02 -2 21 C-2.99 21.495 -2.99 21.495 -4 22 C-4 22.99 -4 23.98 -4 25 C-7.05847848 25.54372951 -9.88772805 26 -13 26 C-13.99 26.495 -13.99 26.495 -15 27 C-15 28.65 -15 30.3 -15 32 C-14.01 32.495 -14.01 32.495 -13 33 C-15.78823655 34.0326802 -16.8677274 34.04509293 -19.75 33.0625 C-20.86375 32.5365625 -20.86375 32.5365625 -22 32 C-22 32.66 -22 33.32 -22 34 C-21.443125 34.2475 -20.88625 34.495 -20.3125 34.75 C-17.037321 36.52036703 -14.17401196 38.71303645 -11.66015625 41.46875 C-5.99363275 46.69528462 2.27721686 48.56354896 9.6875 49.640625 C12 50 12 50 15 51 C16.53949329 51.09182942 18.08277855 51.13002352 19.625 51.125 C20.42164062 51.12757812 21.21828125 51.13015625 22.0390625 51.1328125 C24.00353536 51.21570074 24.00353536 51.21570074 25 50 C27.52195967 49.60056824 30.02963656 49.24920152 32.5625 48.9375 C33.27341797 48.84662109 33.98433594 48.75574219 34.71679688 48.66210938 C36.47738403 48.43760497 38.23863478 48.21831603 40 48 C39.67 48.99 39.34 49.98 39 51 C37.02 51 35.04 51 33 51 C33 52.32 33 53.64 33 55 C17.0112916 58.02358328 0.94845474 55.75419863 -12.95703125 47.17578125 C-18.69216626 43.18236987 -24.0086721 38.80309107 -28 33 C-28 32.34 -28 31.68 -28 31 C-28.66 31 -29.32 31 -30 31 C-30.309375 29.741875 -30.61875 28.48375 -30.9375 27.1875 C-32.15158011 24.61837917 -33.15037499 23.30791929 -35.85791016 22.32666016 C-40.84270505 21.13124174 -45.90778344 20.53368209 -51 20 C-51 19.67 -51 19.34 -51 19 C-48.9174133 18.80438131 -46.83388144 18.61880687 -44.75 18.4375 C-43.58984375 18.33308594 -42.4296875 18.22867188 -41.234375 18.12109375 C-38.48128523 18.01801913 -36.580018 18.13786527 -34 19 C-33.67 18.34 -33.34 17.68 -33 17 C-30.5625 16.25 -30.5625 16.25 -28 16 C-27.34 16.66 -26.68 17.32 -26 18 C-26.99 18 -27.98 18 -29 18 C-28.67 18.66 -28.34 19.32 -28 20 C-26.02 20 -24.04 20 -22 20 C-21.66269158 18.56342755 -21.33030409 17.12569907 -21 15.6875 C-20.814375 14.88699219 -20.62875 14.08648437 -20.4375 13.26171875 C-19.90504177 10.89304062 -19.90504177 10.89304062 -20 8 C-19.34 8 -18.68 8 -18 8 C-18 7.34 -18 6.68 -18 6 C-18.99 5.67 -19.98 5.34 -21 5 C-17.29798323 3.48122389 -14.32764481 2.91223416 -10.375 3.0625 C-7.26285582 3.15141841 -6.28681877 3.17650386 -3.5625 1.5 C-2 0 -2 0 0 0 Z " fill="#414141" transform="translate(61,65)"/>
<path d="M0 0 C-0.01160156 1.20398438 -0.02320313 2.40796875 -0.03515625 3.6484375 C-0.04453434 5.22395679 -0.05363452 6.79947775 -0.0625 8.375 C-0.07506836 9.56609375 -0.07506836 9.56609375 -0.08789062 10.78125 C-0.23040151 15.02392222 -0.23040151 15.02392222 1 19 C0.34 19.66 -0.32 20.32 -1 21 C-1.66 20.67 -2.32 20.34 -3 20 C-3 20.66 -3 21.32 -3 22 C0.3 22 3.6 22 7 22 C8.26026798 24.52053595 7.91874445 25.8542098 7.5625 28.625 C7.46066406 29.44226563 7.35882813 30.25953125 7.25390625 31.1015625 C7.17011719 31.72804687 7.08632812 32.35453125 7 33 C7.99 33.495 7.99 33.495 9 34 C7.18818595 34.19401633 5.37551468 34.38004375 3.5625 34.5625 C2.04849609 34.71912109 2.04849609 34.71912109 0.50390625 34.87890625 C-0.73552734 34.93884766 -0.73552734 34.93884766 -2 35 C-2.495 34.505 -2.495 34.505 -3 34 C-4.80696385 33.76506569 -6.6214118 33.58628226 -8.4375 33.4375 C-9.42621094 33.35371094 -10.41492188 33.26992188 -11.43359375 33.18359375 C-12.95307583 33.07489412 -14.47663484 33 -16 33 C-17.66965451 32.68197057 -19.33678518 32.35015049 -21 32 C-21 31.34 -21 30.68 -21 30 C-21.78375 30.495 -22.5675 30.99 -23.375 31.5 C-26 33 -26 33 -28 33 C-29.125 29.25 -29.125 29.25 -28 27 C-29.65 27.33 -31.3 27.66 -33 28 C-33 21.36885412 -28.40648046 15.63840048 -24 11 C-23.34 11 -22.68 11 -22 11 C-22 10.34 -22 9.68 -22 9 C-21.34 9 -20.68 9 -20 9 C-20 8.34 -20 7.68 -20 7 C-17.734375 5.30859375 -17.734375 5.30859375 -14.75 3.4375 C-13.77546875 2.81746094 -12.8009375 2.19742187 -11.796875 1.55859375 C-7.3497024 -0.91964908 -4.95348513 -1.23837128 0 0 Z " fill="#838484" transform="translate(68,18)"/>
<path d="M0 0 C-1.4206611 11.36528884 -9.94110126 19.88281308 -18.4375 26.8125 C-25.00611315 31.67304446 -32.05792175 35.10080738 -40 37 C-40 35.68 -40 34.36 -40 33 C-38.02 33 -36.04 33 -34 33 C-34 32.34 -34 31.68 -34 31 C-36.31317961 31.30742903 -38.62553352 31.62107702 -40.9375 31.9375 C-42.22527344 32.11152344 -43.51304688 32.28554687 -44.83984375 32.46484375 C-47.85466313 32.66162423 -47.85466313 32.66162423 -49 34 C-50.4555937 34.09858603 -51.91607919 34.12972143 -53.375 34.125 C-54.16648438 34.12757812 -54.95796875 34.13015625 -55.7734375 34.1328125 C-58 34 -58 34 -61 33 C-62.64512303 32.76578866 -64.2910704 32.53734281 -65.9375 32.3125 C-72.60966663 31.16181886 -78.12468097 28.26064826 -84 25 C-84 24.34 -84 23.68 -84 23 C-84.70125 22.773125 -85.4025 22.54625 -86.125 22.3125 C-89.75677921 20.65451384 -92.07408515 18.72642066 -95 16 C-95.33 15.01 -95.66 14.02 -96 13 C-91.76570244 14.31061591 -87.92592596 15.94356259 -84 18 C-84 18.66 -84 19.32 -84 20 C-83.46375 20.268125 -82.9275 20.53625 -82.375 20.8125 C-80.59149144 21.70425428 -78.82296802 22.62608084 -77.0625 23.5625 C-74.29656688 24.86079514 -72.00318063 25.55835579 -69 26 C-69 26.66 -69 27.32 -69 28 C-65.66674246 28.05874776 -62.33362062 28.09384467 -59 28.125 C-57.59814453 28.15013672 -57.59814453 28.15013672 -56.16796875 28.17578125 C-50.42462519 28.21594449 -45.47182986 27.81127701 -40 26 C-39.67 25.34 -39.34 24.68 -39 24 C-36.69467163 22.69364726 -34.52428777 21.84142926 -32 21 C-31.34 21.33 -30.68 21.66 -30 22 C-30 20.68 -30 19.36 -30 18 C-28.948125 17.608125 -27.89625 17.21625 -26.8125 16.8125 C-23.07191117 15.22237115 -20.72432058 13.0356715 -18 10 C-17.34 9.34 -16.68 8.68 -16 8 C-17.98 8 -19.96 8 -22 8 C-22 6.35 -22 4.7 -22 3 C-20.54176788 2.9729957 -19.08339325 2.95360213 -17.625 2.9375 C-16.81289062 2.92589844 -16.00078125 2.91429688 -15.1640625 2.90234375 C-13 3 -13 3 -11 4 C-10.67 3.34 -10.34 2.68 -10 2 C-14.62 2 -19.24 2 -24 2 C-24 1.67 -24 1.34 -24 1 C-21.50018262 0.8301095 -19.00020399 0.66402047 -16.5 0.5 C-15.80390625 0.45230469 -15.1078125 0.40460938 -14.390625 0.35546875 C-9.58304475 0.04386633 -4.81771254 -0.04340282 0 0 Z " fill="#3D698B" transform="translate(134,83)"/>
<path d="M0 0 C3.3 0.66 6.6 1.32 10 2 C10 2.66 10 3.32 10 4 C9.34 4 8.68 4 8 4 C8 4.66 8 5.32 8 6 C8.67417969 5.83628906 9.34835938 5.67257813 10.04296875 5.50390625 C13.51367906 4.9124642 16.79322124 4.90460954 20.3125 4.9375 C21.56675781 4.94652344 22.82101563 4.95554687 24.11328125 4.96484375 C25.06589844 4.97644531 26.01851562 4.98804688 27 5 C27.33 4.34 27.66 3.68 28 3 C28 3.99 28 4.98 28 6 C28.66 6 29.32 6 30 6 C30.33 5.34 30.66 4.68 31 4 C36.61 4.33 42.22 4.66 48 5 C47.67 5.99 47.34 6.98 47 8 C47 7.34 47 6.68 47 6 C41.72 6 36.44 6 31 6 C31.99 6.33 32.98 6.66 34 7 C34 7.99 34 8.98 34 10 C34.99 10 35.98 10 37 10 C36.67 10.99 36.34 11.98 36 13 C32.7 13 29.4 13 26 13 C26.495 14.3921875 26.495 14.3921875 27 15.8125 C28 19 28 19 28 22 C25 24 25 24 22 24 C22 24.66 22 25.32 22 26 C20.66666667 27.33333333 19.33333333 28.66666667 18 30 C17.67 30.99 17.34 31.98 17 33 C17.78375 32.835 18.5675 32.67 19.375 32.5 C26.33049504 31.54062137 33.09647953 31.79938774 40 33 C39.67 33.99 39.34 34.98 39 36 C34.11465868 38.0158461 29.0939494 38.40083608 24 37 C23.505 36.505 23.505 36.505 23 36 C22.01 36.66 21.02 37.32 20 38 C20 37.34 20 36.68 20 36 C18.35 35.67 16.7 35.34 15 35 C14.63076923 28.6 14.63076923 28.6 16.5 25.5625 C16.995 25.046875 17.49 24.53125 18 24 C16.84133329 21.93902794 16.84133329 21.93902794 15 20 C12.50592748 19.3049261 12.50592748 19.3049261 9.8125 19.25 C8.91144531 19.19328125 8.01039062 19.1365625 7.08203125 19.078125 C6.39496094 19.05234375 5.70789063 19.0265625 5 19 C5 18.67 5 18.34 5 18 C10.28 18 15.56 18 21 18 C21 16.68 21 15.36 21 14 C16.38 14 11.76 14 7 14 C7 11.69 7 9.38 7 7 C2.65728748 7.48252361 0.8601779 8.7453148 -2 12 C-2.66 12.66 -3.32 13.32 -4 14 C-4.66 13.34 -5.32 12.68 -6 12 C-6.66 12 -7.32 12 -8 12 C-8 11.34 -8 10.68 -8 10 C-7.01 10 -6.02 10 -5 10 C-5.66 7.36 -6.32 4.72 -7 2 C-2.25 0.875 -2.25 0.875 0 2 C0 1.34 0 0.68 0 0 Z " fill="#767677" transform="translate(71,53)"/>
<path d="M0 0 C5.28 0 10.56 0 16 0 C14.38262276 3.23475448 13.52370777 4.70572021 11 7 C18.08057056 6.62304128 18.08057056 6.62304128 24 3 C24.99 3 25.98 3 27 3 C27 2.34 27 1.68 27 1 C27.66 1 28.32 1 29 1 C28.67 1.99 28.34 2.98 28 4 C27.01 4 26.02 4 25 4 C25.33 4.66 25.66 5.32 26 6 C27.485 6.495 27.485 6.495 29 7 C28.67 8.65 28.34 10.3 28 12 C28.66 12.33 29.32 12.66 30 13 C30 13.99 30 14.98 30 16 C30.99 16.33 31.98 16.66 33 17 C33 14.03 33 11.06 33 8 C33.33 8 33.66 8 34 8 C34 11.96 34 15.92 34 20 C26.74937731 20.84170848 19.67020361 21.12580951 12.375 21.0625 C11.37082031 21.05798828 10.36664063 21.05347656 9.33203125 21.04882812 C6.88795529 21.03718967 4.4440118 21.0208424 2 21 C3.52572656 17.67364118 4.93344504 16.04436998 8 14 C6.84371094 14.03480469 6.84371094 14.03480469 5.6640625 14.0703125 C4.66117188 14.08835937 3.65828125 14.10640625 2.625 14.125 C1.62726563 14.14820312 0.62953125 14.17140625 -0.3984375 14.1953125 C-3 14 -3 14 -5 12 C-5.125 9.375 -5.125 9.375 -5 7 C-4.28972656 6.95101562 -3.57945313 6.90203125 -2.84765625 6.8515625 C-1.92855469 6.77679688 -1.00945312 6.70203125 -0.0625 6.625 C0.85402344 6.55539063 1.77054687 6.48578125 2.71484375 6.4140625 C3.84599609 6.20910156 3.84599609 6.20910156 5 6 C5.33 5.34 5.66 4.68 6 4 C5.01 4 4.02 4 3 4 C3 3.01 3 2.02 3 1 C2.01 1.33 1.02 1.66 0 2 C0 1.34 0 0.68 0 0 Z " fill="#4A4A4A" transform="translate(102,59)"/>
<path d="M0 0 C-0.99 0 -1.98 0 -3 0 C-0.28395285 2.87420123 -0.28395285 2.87420123 3 5 C4.25 7.375 4.25 7.375 5 10 C4.01 11.485 4.01 11.485 3 13 C3.64005363 16.06502056 3.64005363 16.06502056 5.75 16.9375 C6.86375 17.4634375 6.86375 17.4634375 8 18 C10.26542071 19.71287907 12.42317496 21.36767867 14.33984375 23.46875 C20.00636725 28.69528462 28.27721686 30.56354896 35.6875 31.640625 C38 32 38 32 41 33 C42.53949329 33.09182942 44.08277855 33.13002352 45.625 33.125 C46.42164062 33.12757812 47.21828125 33.13015625 48.0390625 33.1328125 C50.00353536 33.21570074 50.00353536 33.21570074 51 32 C53.52195967 31.60056824 56.02963656 31.24920152 58.5625 30.9375 C59.27341797 30.84662109 59.98433594 30.75574219 60.71679688 30.66210938 C62.47738403 30.43760497 64.23863478 30.21831603 66 30 C65.67 30.99 65.34 31.98 65 33 C63.02 33 61.04 33 59 33 C59 34.32 59 35.64 59 37 C43.0112916 40.02358328 26.94845474 37.75419863 13.04296875 29.17578125 C7.30783374 25.18236987 1.9913279 20.80309107 -2 15 C-2 14.34 -2 13.68 -2 13 C-2.66 13 -3.32 13 -4 13 C-4.309375 11.741875 -4.61875 10.48375 -4.9375 9.1875 C-6.15158011 6.61837917 -7.15037499 5.30791929 -9.85791016 4.32666016 C-14.84270505 3.13124174 -19.90778344 2.53368209 -25 2 C-25 1.67 -25 1.34 -25 1 C-22.9174133 0.80438131 -20.83388144 0.61880687 -18.75 0.4375 C-17.58984375 0.33308594 -16.4296875 0.22867188 -15.234375 0.12109375 C-12.48128523 0.01801913 -10.580018 0.13786527 -8 1 C-7.67 0.34 -7.34 -0.32 -7 -1 C-3.58234953 -2.36706019 -3.25800204 -2.17200136 0 0 Z " fill="#3D4145" transform="translate(35,83)"/>
<path d="M0 0 C2.5201012 0.54945603 4.0245086 1.0168059 6.1875 2.5 C10.03079536 4.54975753 13.7025881 4.72848596 18 5 C18.33 4.01 18.66 3.02 19 2 C19 2.66 19 3.32 19 4 C22.465 3.505 22.465 3.505 26 3 C26.33 3.99 26.66 4.98 27 6 C26.34 6 25.68 6 25 6 C25 6.99 25 7.98 25 9 C25.66 9 26.32 9 27 9 C27 8.34 27 7.68 27 7 C29.97 7.33 32.94 7.66 36 8 C37.13643966 11.40931897 36.86747764 12.00335456 35.5625 15.1875 C35.13130859 16.26064453 35.13130859 16.26064453 34.69140625 17.35546875 C34.46324219 17.89816406 34.23507813 18.44085938 34 19 C32.02 19 30.04 19 28 19 C27.67 17.68 27.34 16.36 27 15 C26.03449219 15.32484375 25.06898437 15.6496875 24.07421875 15.984375 C19.63985344 17.24782869 15.39676368 17.29535133 10.8125 17.25 C9.62237305 17.26160156 9.62237305 17.26160156 8.40820312 17.2734375 C1.31191769 17.24960447 1.31191769 17.24960447 -2 15 C-1.67 14.01 -1.34 13.02 -1 12 C-0.77674186 9.94106379 -0.59294241 7.87766347 -0.4375 5.8125 C-0.35371094 4.72582031 -0.26992187 3.63914062 -0.18359375 2.51953125 C-0.12300781 1.68808594 -0.06242188 0.85664062 0 0 Z " fill="#2C2B2B" transform="translate(5,67)"/>
<path d="M0 0 C0.12375 0.969375 0.2475 1.93875 0.375 2.9375 C0.58125 3.948125 0.7875 4.95875 1 6 C1.66 6.33 2.32 6.66 3 7 C3 7.66 3 8.32 3 9 C1.865625 8.979375 0.73125 8.95875 -0.4375 8.9375 C-3.81575674 8.58422523 -3.81575674 8.58422523 -5 10 C-0.71 10.33 3.58 10.66 8 11 C8 11.33 8 11.66 8 12 C-0.91 12 -9.82 12 -19 12 C-19 13.32 -19 14.64 -19 16 C-19.66 16 -20.32 16 -21 16 C-21 16.66 -21 17.32 -21 18 C-21.66 18 -22.32 18 -23 18 C-23 16.35 -23 14.7 -23 13 C-25.31 13 -27.62 13 -30 13 C-30.625 11.125 -30.625 11.125 -31 9 C-30.34 8.34 -29.68 7.68 -29 7 C-28.35232207 4.42938689 -28.35232207 4.42938689 -28 2 C-26.9171875 1.8453125 -26.9171875 1.8453125 -25.8125 1.6875 C-22.94760138 1.13963634 -22.94760138 1.13963634 -20.5625 -0.5 C-13.52093017 -4.62189453 -7.30136913 -2.14746151 0 0 Z " fill="#40403F" transform="translate(122,41)"/>
<path d="M0 0 C0.495 0.495 0.495 0.495 1 1 C3.32817964 1.36760731 5.6618385 1.70241581 8 2 C7.34 2.66 6.68 3.32 6 4 C5.27425781 3.97808594 4.54851562 3.95617187 3.80078125 3.93359375 C-4.55038333 4.13159905 -13.79481468 11.02530582 -19.546875 16.71484375 C-21 18 -21 18 -23 18 C-23.25910156 18.55300781 -23.51820312 19.10601563 -23.78515625 19.67578125 C-25.16503184 22.31573615 -26.77787143 24.71411807 -28.4375 27.1875 C-31.56269067 32.03154554 -33.45651651 36.46161807 -35 42 C-34.34 42 -33.68 42 -33 42 C-33 42.66 -33 43.32 -33 44 C-34.66611905 44.042721 -36.33382885 44.04063832 -38 44 C-38.33 43.67 -38.66 43.34 -39 43 C-39.33 43.66 -39.66 44.32 -40 45 C-40.99 44.67 -41.98 44.34 -43 44 C-37.77842384 25.02914791 -28.07875089 12.36666813 -10.87231445 2.52416992 C-3.30428159 -1.6521408 -3.30428159 -1.6521408 0 0 Z " fill="#818C93" transform="translate(65,9)"/>
<path d="M0 0 C1.75140143 0.45294865 3.50107344 0.91258748 5.25 1.375 C6.22453125 1.63023438 7.1990625 1.88546875 8.203125 2.1484375 C10.68690903 2.90467342 12.79089092 3.64441034 15 5 C17.7256022 10.4512044 18.1160922 17.36786182 16.32421875 23.19921875 C15.62465599 24.83374216 14.82241255 26.42370928 14 28 C13.34 28 12.68 28 12 28 C11.93941406 27.25234375 11.87882812 26.5046875 11.81640625 25.734375 C11.69072266 24.25710937 11.69072266 24.25710937 11.5625 22.75 C11.48128906 21.77546875 11.40007812 20.8009375 11.31640625 19.796875 C11.04925416 17.43538247 10.64628032 15.28098935 10 13 C7.71305777 12.49620971 7.71305777 12.49620971 5 13 C-0.81526979 17.86859797 -1.21189578 23.73062074 -2 31 C-3.32 30.67 -4.64 30.34 -6 30 C-7.125 24.375 -7.125 24.375 -6 21 C-7.32 20.67 -8.64 20.34 -10 20 C-10 19.34 -10 18.68 -10 18 C-9.01 17.67 -8.02 17.34 -7 17 C-5.76049958 14.90861544 -5.76049958 14.90861544 -4.8125 12.4375 C-4.46832031 11.61121094 -4.12414062 10.78492188 -3.76953125 9.93359375 C-3.38861328 8.97646484 -3.38861328 8.97646484 -3 8 C-2.01 8.33 -1.02 8.66 0 9 C0 9.66 0 10.32 0 11 C0.66 11 1.32 11 2 11 C2.33 9.68 2.66 8.36 3 7 C2.01 7 1.02 7 0 7 C0.33 5.68 0.66 4.36 1 3 C0.34 2.67 -0.32 2.34 -1 2 C-0.67 1.34 -0.34 0.68 0 0 Z " fill="#4C4C4C" transform="translate(137,45)"/>
<path d="M0 0 C-1.4206611 11.36528884 -9.94110126 19.88281308 -18.4375 26.8125 C-25.00611315 31.67304446 -32.05792175 35.10080738 -40 37 C-40 35.68 -40 34.36 -40 33 C-38.02 33 -36.04 33 -34 33 C-34 32.34 -34 31.68 -34 31 C-34.66 30.34 -35.32 29.68 -36 29 C-30.375 27 -30.375 27 -27 27 C-26.67 26.01 -26.34 25.02 -26 24 C-21.54285714 20 -21.54285714 20 -19 20 C-19 19.34 -19 18.68 -19 18 C-16.625 15.375 -16.625 15.375 -14 13 C-13.34 13 -12.68 13 -12 13 C-11.67 12.01 -11.34 11.02 -11 10 C-10.34 9.67 -9.68 9.34 -9 9 C-8.34786708 6.97536745 -8.34786708 6.97536745 -8 5 C-8.66 5 -9.32 5 -10 5 C-10 4.01 -10 3.02 -10 2 C-14.62 2 -19.24 2 -24 2 C-24 1.67 -24 1.34 -24 1 C-21.50018262 0.8301095 -19.00020399 0.66402047 -16.5 0.5 C-15.80390625 0.45230469 -15.1078125 0.40460938 -14.390625 0.35546875 C-9.58304475 0.04386633 -4.81771254 -0.04340282 0 0 Z " fill="#838D95" transform="translate(134,83)"/>
<path d="M0 0 C0.33 1.98 0.66 3.96 1 6 C1.66 6 2.32 6 3 6 C3 9.3 3 12.6 3 16 C3.66 16.33 4.32 16.66 5 17 C4 20 4 20 0.8125 21.75 C-2.73611246 23.16504588 -5.27874674 22.99838502 -9 22 C-9 21.01 -9 20.02 -9 19 C-9.66 19 -10.32 19 -11 19 C-13.625 16.6875 -13.625 16.6875 -16 14 C-16 11 -16 11 -15 9 C-14.34 9 -13.68 9 -13 9 C-13 8.34 -13 7.68 -13 7 C-12.34 7 -11.68 7 -11 7 C-11 6.34 -11 5.68 -11 5 C-9.35546875 3.7109375 -9.35546875 3.7109375 -7.1875 2.375 C-6.47980469 1.92898437 -5.77210937 1.48296875 -5.04296875 1.0234375 C-3 0 -3 0 0 0 Z " fill="#97989A" transform="translate(59,20)"/>
<path d="M0 0 C1.30078125 2.19140625 1.30078125 2.19140625 2 4 C0.68 4.99 -0.64 5.98 -2 7 C-2 6.01 -2 5.02 -2 4 C-2.99 4 -3.98 4 -5 4 C-5 3.34 -5 2.68 -5 2 C-6.56159059 1.51787786 -8.12431928 1.03944127 -9.6875 0.5625 C-10.55761719 0.29566406 -11.42773438 0.02882813 -12.32421875 -0.24609375 C-14.8726766 -0.9641264 -17.40129423 -1.50041036 -20 -2 C-20.64710937 -2.185625 -21.29421875 -2.37125 -21.9609375 -2.5625 C-24.55837067 -3.11980367 -26.97180838 -3.05721168 -29.625 -3 C-34.77892031 -2.88946015 -34.77892031 -2.88946015 -37 -4 C-39.56845219 -4.03037021 -42.120762 -3.93311185 -44.6875 -3.83984375 C-47 -4 -47 -4 -49 -6 C-38.76594033 -16.23405967 -9.62226999 -7.16850351 0 0 Z M-35 -5 C-35 -4.67 -35 -4.34 -35 -4 C-32.69 -4 -30.38 -4 -28 -4 C-28 -4.33 -28 -4.66 -28 -5 C-30.31 -5 -32.62 -5 -35 -5 Z " fill="#565E62" transform="translate(113,15)"/>
<path d="M0 0 C5.28 0 10.56 0 16 0 C14.38262276 3.23475448 13.52370777 4.70572021 11 7 C12.45880109 6.85892253 13.91703551 6.71197585 15.375 6.5625 C16.18710938 6.48128906 16.99921875 6.40007812 17.8359375 6.31640625 C20.04272805 6.10909886 20.04272805 6.10909886 22 5 C22 5.66 22 6.32 22 7 C22.99 7 23.98 7 25 7 C24.67 8.65 24.34 10.3 24 12 C19.54300594 12.39224394 15.0843726 12.76087784 10.625 13.125 C9.35398437 13.23714844 8.08296875 13.34929687 6.7734375 13.46484375 C5.56171875 13.56152344 4.35 13.65820312 3.1015625 13.7578125 C1.42054443 13.89920654 1.42054443 13.89920654 -0.29443359 14.04345703 C-3 14 -3 14 -5 12 C-5.125 9.375 -5.125 9.375 -5 7 C-4.28972656 6.95101562 -3.57945313 6.90203125 -2.84765625 6.8515625 C-1.92855469 6.77679688 -1.00945312 6.70203125 -0.0625 6.625 C0.85402344 6.55539063 1.77054687 6.48578125 2.71484375 6.4140625 C3.84599609 6.20910156 3.84599609 6.20910156 5 6 C5.33 5.34 5.66 4.68 6 4 C5.01 4 4.02 4 3 4 C3 3.01 3 2.02 3 1 C2.01 1.33 1.02 1.66 0 2 C0 1.34 0 0.68 0 0 Z " fill="#3C6683" transform="translate(102,59)"/>
<path d="M0 0 C3.97256398 2.09663099 6.43898489 4.30075595 9 8 C9 8.66 9 9.32 9 10 C9.66 10 10.32 10 11 10 C11.48919922 10.93972656 11.48919922 10.93972656 11.98828125 11.8984375 C12.42527344 12.71570312 12.86226562 13.53296875 13.3125 14.375 C13.74175781 15.18710937 14.17101562 15.99921875 14.61328125 16.8359375 C15.96778724 19.26834043 15.96778724 19.26834043 19 21 C18.67 22.32 18.34 23.64 18 25 C17.01 24.67 16.02 24.34 15 24 C15 23.34 15 22.68 15 22 C13.906875 22.185625 12.81375 22.37125 11.6875 22.5625 C8 23 8 23 5 22 C4.70222656 21.09765625 4.40445313 20.1953125 4.09765625 19.265625 C2.83176636 15.49948994 1.16662371 13.60616157 -1.5625 10.75 C-5.93220339 6.13559322 -5.93220339 6.13559322 -7 4 C-4.57333205 2.78666603 -2.66500278 3 0 3 C0 2.01 0 1.02 0 0 Z " fill="#1D5076" transform="translate(118,20)"/>
<path d="M0 0 C0.33 0.99 0.66 1.98 1 3 C5.62 3 10.24 3 15 3 C15.33 5.97 15.66 8.94 16 12 C16.99 12.33 17.98 12.66 19 13 C17.68 13.33 16.36 13.66 15 14 C15 14.66 15 15.32 15 16 C13.66666667 17.33333333 12.33333333 18.66666667 11 20 C10.67 20.99 10.34 21.98 10 23 C11.175625 22.7525 11.175625 22.7525 12.375 22.5 C19.33049504 21.54062137 26.09647953 21.79938774 33 23 C32.505 24.485 32.505 24.485 32 26 C27.11465868 28.0158461 22.0939494 28.40083608 17 27 C16.67 26.67 16.34 26.34 16 26 C15.01 26.66 14.02 27.32 13 28 C13 27.34 13 26.68 13 26 C11.35 25.67 9.7 25.34 8 25 C7.63076923 18.6 7.63076923 18.6 9.5 15.5625 C9.995 15.046875 10.49 14.53125 11 14 C9.84133329 11.93902794 9.84133329 11.93902794 8 10 C5.50592748 9.3049261 5.50592748 9.3049261 2.8125 9.25 C1.46091797 9.16492188 1.46091797 9.16492188 0.08203125 9.078125 C-0.60503906 9.05234375 -1.29210937 9.0265625 -2 9 C-2 8.67 -2 8.34 -2 8 C3.28 8 8.56 8 14 8 C14 6.68 14 5.36 14 4 C9.38 4 4.76 4 0 4 C0 2.68 0 1.36 0 0 Z " fill="#909191" transform="translate(78,63)"/>
<path d="M0 0 C4.67692308 1.47692308 4.67692308 1.47692308 6.3125 4.125 C6.539375 4.74375 6.76625 5.3625 7 6 C7.66 6 8.32 6 9 6 C9 6.99 9 7.98 9 9 C9.99 8.67 10.98 8.34 12 8 C12 8.66 12 9.32 12 10 C12.99 10 13.98 10 15 10 C14.34 11.32 13.68 12.64 13 14 C10.33333333 14 7.66666667 14 5 14 C4.34 14.66 3.68 15.32 3 16 C2.34 16.66 1.68 17.32 1 18 C0.34 18 -0.32 18 -1 18 C-2.125 14.25 -2.125 14.25 -1 12 C-2.65 12.33 -4.3 12.66 -6 13 C-6 9.86291193 -5.52190451 8.66503253 -4.125 5.9375 C-3.77695312 5.24527344 -3.42890625 4.55304687 -3.0703125 3.83984375 C-2 2 -2 2 0 0 Z " fill="#636565" transform="translate(41,33)"/>
<path d="M0 0 C-0.99 0 -1.98 0 -3 0 C-0.28395285 2.87420123 -0.28395285 2.87420123 3 5 C4.25 7.375 4.25 7.375 5 10 C4.01 11.485 4.01 11.485 3 13 C3.33 13.99 3.66 14.98 4 16 C4.66 16 5.32 16 6 16 C6 16.66 6 17.32 6 18 C5.34 18 4.68 18 4 18 C4 18.66 4 19.32 4 20 C1.00675737 18.9024777 0.15389099 18.32317108 -1.25 15.375 C-1.4975 14.59125 -1.745 13.8075 -2 13 C-2.66 13 -3.32 13 -4 13 C-4.309375 11.741875 -4.61875 10.48375 -4.9375 9.1875 C-6.15158011 6.61837917 -7.15037499 5.30791929 -9.85791016 4.32666016 C-14.84270505 3.13124174 -19.90778344 2.53368209 -25 2 C-25 1.67 -25 1.34 -25 1 C-22.9174133 0.80438131 -20.83388144 0.61880687 -18.75 0.4375 C-17.58984375 0.33308594 -16.4296875 0.22867188 -15.234375 0.12109375 C-12.48128523 0.01801913 -10.580018 0.13786527 -8 1 C-7.67 0.34 -7.34 -0.32 -7 -1 C-3.58234953 -2.36706019 -3.25800204 -2.17200136 0 0 Z " fill="#363739" transform="translate(35,83)"/>
<path d="M0 0 C0 2.31 0 4.62 0 7 C-0.99 7 -1.98 7 -3 7 C-1.68 7.33 -0.36 7.66 1 8 C0.67 10.97 0.34 13.94 0 17 C-3 13.25 -3 13.25 -3 11 C-3.66 11 -4.32 11 -5 11 C-5 10.34 -5 9.68 -5 9 C-5.59167969 9.15597656 -6.18335938 9.31195313 -6.79296875 9.47265625 C-14.64147627 11.4059754 -14.64147627 11.4059754 -19 10 C-18.04882866 8.8274869 -17.08882991 7.66212985 -16.125 6.5 C-15.32449219 5.52546875 -15.32449219 5.52546875 -14.5078125 4.53125 C-14.01023437 4.0259375 -13.51265625 3.520625 -13 3 C-12.34 3 -11.68 3 -11 3 C-11 2.34 -11 1.68 -11 1 C-7.2297564 -1.56376565 -4.32597804 -0.83191885 0 0 Z " fill="#565656" transform="translate(66,56)"/>
<path d="M0 0 C8.69890701 2.38048692 15.9673155 9.6187294 21 17 C21.3125 19.875 21.3125 19.875 21 22 C22.98 22 24.96 22 27 22 C27.33 22.99 27.66 23.98 28 25 C27.360625 25.12375 26.72125 25.2475 26.0625 25.375 C25.381875 25.58125 24.70125 25.7875 24 26 C23.67 26.66 23.34 27.32 23 28 C22.01 28 21.02 28 20 28 C18.875 23.25 18.875 23.25 20 21 C19.01 21 18.02 21 17 21 C17 20.34 17 19.68 17 19 C16.13375 18.690625 16.13375 18.690625 15.25 18.375 C12.136873 16.4725335 10.79260061 14.13705107 9 11 C9 10.01 9 9.02 9 8 C8.360625 7.896875 7.72125 7.79375 7.0625 7.6875 C6.381875 7.460625 5.70125 7.23375 5 7 C4.67 6.01 4.34 5.02 4 4 C3.34 4 2.68 4 2 4 C1.67 4.99 1.34 5.98 1 7 C0 6 0 6 -0.0625 2.9375 C-0.041875 1.968125 -0.02125 0.99875 0 0 Z " fill="#293034" transform="translate(102,20)"/>
<path d="M0 0 C0.721875 0.144375 1.44375 0.28875 2.1875 0.4375 C0.4375 4.3125 0.4375 4.3125 -1.8125 5.4375 C-1.750625 6.241875 -1.68875 7.04625 -1.625 7.875 C-1.86389407 12.41398733 -3.23293264 16.20651601 -4.8125 20.4375 C-4.1525 20.4375 -3.4925 20.4375 -2.8125 20.4375 C-2.8125 21.0975 -2.8125 21.7575 -2.8125 22.4375 C-4.47861905 22.480221 -6.14632885 22.47813832 -7.8125 22.4375 C-8.1425 22.1075 -8.4725 21.7775 -8.8125 21.4375 C-9.1425 22.0975 -9.4725 22.7575 -9.8125 23.4375 C-10.8025 23.1075 -11.7925 22.7775 -12.8125 22.4375 C-6.32390456 0.98371849 -6.32390456 0.98371849 0 0 Z " fill="#555A60" transform="translate(34.8125,30.5625)"/>
<path d="M0 0 C3.3 0.66 6.6 1.32 10 2 C10 2.66 10 3.32 10 4 C9.34 4 8.68 4 8 4 C8 4.66 8 5.32 8 6 C8.763125 5.79375 9.52625 5.5875 10.3125 5.375 C13 5 13 5 16 7 C13.69 7 11.38 7 9 7 C8.67 7.66 8.34 8.32 8 9 C7.67 8.34 7.34 7.68 7 7 C2.65728748 7.48252361 0.8601779 8.7453148 -2 12 C-2.66 12.66 -3.32 13.32 -4 14 C-4.66 13.34 -5.32 12.68 -6 12 C-6.66 12 -7.32 12 -8 12 C-8 11.34 -8 10.68 -8 10 C-7.01 10 -6.02 10 -5 10 C-5.66 7.36 -6.32 4.72 -7 2 C-2.25 0.875 -2.25 0.875 0 2 C0 1.34 0 0.68 0 0 Z " fill="#7B7B7A" transform="translate(71,53)"/>
<path d="M0 0 C1.45823212 -0.0270043 2.91660675 -0.04639787 4.375 -0.0625 C5.18710938 -0.07410156 5.99921875 -0.08570312 6.8359375 -0.09765625 C9 0 9 0 11 1 C10.33333333 2.33333333 9.66666667 3.66666667 9 5 C8.67 5.9075 8.34 6.815 8 7.75 C4.54030013 13.37201229 -1.73805632 18.64686876 -8 21 C-8.99 20.67 -9.98 20.34 -11 20 C-10.34 19.67 -9.68 19.34 -9 19 C-8.938125 18.38125 -8.87625 17.7625 -8.8125 17.125 C-8.544375 16.42375 -8.27625 15.7225 -8 15 C-6.29825339 14.24730439 -4.59069067 13.50296345 -2.84765625 12.8515625 C0.04961004 11.51624738 1.89515447 9.34539931 4 7 C4.66 6.34 5.32 5.68 6 5 C4.02 5 2.04 5 0 5 C0 3.35 0 1.7 0 0 Z " fill="#616569" transform="translate(112,86)"/>
<path d="M0 0 C0.99 0 1.98 0 3 0 C2.62403791 2.78211944 2.32681541 4.5879284 0.5625 6.8125 C-1 8 -1 8 -3 8 C-3.268125 8.639375 -3.53625 9.27875 -3.8125 9.9375 C-5 12 -5 12 -8 13 C-8 13.66 -8 14.32 -8 15 C-12.47058824 19 -12.47058824 19 -15 19 C-15.33 20.32 -15.66 21.64 -16 23 C-17.8253125 23.2165625 -17.8253125 23.2165625 -19.6875 23.4375 C-22.82670377 23.82780953 -25.9075134 24.32351856 -29 25 C-26.62468103 21.43702154 -24.12566673 20.45573588 -20.375 18.75 C-12.16591682 14.82126987 -5.64532242 10.70827023 -2 2 C-1.34 1.34 -0.68 0.68 0 0 Z " fill="#295B81" transform="translate(123,88)"/>
<path d="M0 0 C0.33 0.33 0.66 0.66 1 1 C3.32817964 1.36760731 5.6618385 1.70241581 8 2 C7.34 2.66 6.68 3.32 6 4 C4.88238281 3.97292969 4.88238281 3.97292969 3.7421875 3.9453125 C0.22397261 4.01547633 -1.79570625 5.20338339 -4.875 6.875 C-9.24478706 9.16239471 -13.20002859 10.90909741 -18 12 C-17.83203125 9.20703125 -17.83203125 9.20703125 -17 6 C-14.63671875 4.13671875 -14.63671875 4.13671875 -11.6875 2.6875 C-10.72199219 2.19636719 -9.75648437 1.70523437 -8.76171875 1.19921875 C-2.78879637 -1.39439818 -2.78879637 -1.39439818 0 0 Z " fill="#70787E" transform="translate(65,9)"/>
<path d="M0 0 C9.73192629 -0.60824539 16.24258697 3.45129485 24 9 C22.25 12.875 22.25 12.875 20 14 C20 13.01 20 12.02 20 11 C19.01 11 18.02 11 17 11 C17 10.34 17 9.68 17 9 C15.43840941 8.51787786 13.87568072 8.03944127 12.3125 7.5625 C11.44238281 7.29566406 10.57226562 7.02882813 9.67578125 6.75390625 C7.12900189 6.03634652 4.59423749 5.51196395 2 5 C1.01 4.67 0.02 4.34 -1 4 C-0.67 2.68 -0.34 1.36 0 0 Z " fill="#4D4E4C" transform="translate(91,8)"/>
<path d="M0 0 C-0.58837686 4.70701486 -2.55895576 10.55895576 -6 14 C-7.66617115 14.04063832 -9.33388095 14.042721 -11 14 C-11 12.68 -11 11.36 -11 10 C-10.34 9.67 -9.68 9.34 -9 9 C-8.34786708 6.97536745 -8.34786708 6.97536745 -8 5 C-8.66 5 -9.32 5 -10 5 C-10 4.01 -10 3.02 -10 2 C-14.62 2 -19.24 2 -24 2 C-24 1.67 -24 1.34 -24 1 C-21.50018262 0.8301095 -19.00020399 0.66402047 -16.5 0.5 C-15.80390625 0.45230469 -15.1078125 0.40460938 -14.390625 0.35546875 C-9.58304475 0.04386633 -4.81771254 -0.04340282 0 0 Z " fill="#787D83" transform="translate(134,83)"/>
<path d="M0 0 C0 5.94 0 11.88 0 18 C-1.32 17.67 -2.64 17.34 -4 17 C-4 14.36 -4 11.72 -4 9 C-5.32 8.67 -6.64 8.34 -8 8 C-8.12375 7.030625 -8.2475 6.06125 -8.375 5.0625 C-8.58125 4.051875 -8.7875 3.04125 -9 2 C-9.66 1.67 -10.32 1.34 -11 1 C-6.46900722 -0.79132273 -5.01822701 -1.0036454 0 0 Z " fill="#6E7378" transform="translate(68,18)"/>
<path d="M0 0 C4.23429756 1.31061591 8.07407404 2.94356259 12 5 C12 5.66 12 6.32 12 7 C12.57234375 7.28617187 13.1446875 7.57234375 13.734375 7.8671875 C18.8671875 10.43359375 18.8671875 10.43359375 24 13 C23.67 13.66 23.34 14.32 23 15 C25.64 15.99 28.28 16.98 31 18 C27.38520876 19.20493041 26.60282607 18.69797234 23.1875 17.25 C22.30707031 16.87875 21.42664063 16.5075 20.51953125 16.125 C17.62706991 14.83348238 14.80287163 13.47519559 12 12 C12 11.34 12 10.68 12 10 C11.29875 9.773125 10.5975 9.54625 9.875 9.3125 C6.24322079 7.65451384 3.92591485 5.72642066 1 3 C0.67 2.01 0.34 1.02 0 0 Z " fill="#406786" transform="translate(38,96)"/>
<path d="M0 0 C3.46482372 5.19723558 3.55097255 9.92093616 3 16 C2.22465589 18.55142305 1.24073247 20.62192944 0 23 C-0.66 23 -1.32 23 -2 23 C-2.07347656 21.89591797 -2.07347656 21.89591797 -2.1484375 20.76953125 C-2.22320312 19.79371094 -2.29796875 18.81789063 -2.375 17.8125 C-2.44460937 16.84957031 -2.51421875 15.88664062 -2.5859375 14.89453125 C-2.88277553 11.97322364 -2.88277553 11.97322364 -4.1015625 9.32421875 C-5 7 -5 7 -4 4 C-3.01 4.33 -2.02 4.66 -1 5 C-0.67 3.35 -0.34 1.7 0 0 Z " fill="#4A4A4A" transform="translate(151,50)"/>
<path d="M0 0 C2.31 0.33 4.62 0.66 7 1 C7 1.99 7 2.98 7 4 C8.093125 4.103125 9.18625 4.20625 10.3125 4.3125 C14.11154207 5.02079598 14.58376415 5.35364645 17 8 C18.32 8 19.64 8 21 8 C21.33 8.66 21.66 9.32 22 10 C24.97 10 27.94 10 31 10 C31 10.66 31 11.32 31 12 C32.32 10.68 33.64 9.36 35 8 C35.66 8.33 36.32 8.66 37 9 C36.67 10.32 36.34 11.64 36 13 C33.75006641 13.02707139 31.50003905 13.04642829 29.25 13.0625 C27.99703125 13.07410156 26.7440625 13.08570312 25.453125 13.09765625 C22.71463499 13.02021027 20.58119707 12.82780815 18 12 C18 11.34 18 10.68 18 10 C16.92685547 10.08894531 16.92685547 10.08894531 15.83203125 10.1796875 C12.40053853 9.9619652 10.5957028 8.92593151 7.6875 7.125 C6.80449219 6.59132813 5.92148437 6.05765625 5.01171875 5.5078125 C4.34785156 5.01023437 3.68398438 4.51265625 3 4 C3 3.34 3 2.68 3 2 C2.01 1.67 1.02 1.34 0 1 C0 0.67 0 0.34 0 0 Z " fill="#2A3841" transform="translate(47,99)"/>
<path d="M0 0 C0.29530838 6.49678438 -0.82706111 12.6221448 -2 19 C-3.32 18.67 -4.64 18.34 -6 18 C-7.125 12.375 -7.125 12.375 -6 9 C-7.32 8.67 -8.64 8.34 -10 8 C-10 7.34 -10 6.68 -10 6 C-9.01 5.67 -8.02 5.34 -7 5 C-6.67 4.01 -6.34 3.02 -6 2 C-3.85412616 0.684787 -2.52986895 0 0 0 Z " fill="#353535" transform="translate(137,57)"/>
<path d="M0 0 C0.33 0.99 0.66 1.98 1 3 C5.62 3 10.24 3 15 3 C15.33 5.97 15.66 8.94 16 12 C16.99 12.33 17.98 12.66 19 13 C17.68 13.33 16.36 13.66 15 14 C15 14.66 15 15.32 15 16 C13.37373596 17.38232443 11.7074998 18.71937515 10 20 C9.375 18.125 9.375 18.125 9 16 C9.66 15.34 10.32 14.68 11 14 C9.84133329 11.93902794 9.84133329 11.93902794 8 10 C5.50592748 9.3049261 5.50592748 9.3049261 2.8125 9.25 C1.46091797 9.16492188 1.46091797 9.16492188 0.08203125 9.078125 C-0.60503906 9.05234375 -1.29210937 9.0265625 -2 9 C-2 8.67 -2 8.34 -2 8 C3.28 8 8.56 8 14 8 C14 6.68 14 5.36 14 4 C9.38 4 4.76 4 0 4 C0 2.68 0 1.36 0 0 Z " fill="#ADACAC" transform="translate(78,63)"/>
<path d="M0 0 C2.16874252 0.50603992 3.99967627 0.99983813 6 2 C6.6875 5.5 6.6875 5.5 7 9 C6.67 9.33 6.34 9.66 6 10 C5.63239269 12.32817964 5.29758419 14.6618385 5 17 C3.02 16.67 1.04 16.34 -1 16 C-1 12.53306252 -0.79998832 9.19986566 -0.5 5.75 C-0.4071875 4.67234375 -0.314375 3.5946875 -0.21875 2.484375 C-0.1465625 1.66453125 -0.074375 0.8446875 0 0 Z " fill="#323232" transform="translate(5,67)"/>
<path d="M0 0 C0.99 0.33 1.98 0.66 3 1 C2.67 1.66 2.34 2.32 2 3 C1.34 3 0.68 3 0 3 C0 3.66 0 4.32 0 5 C-0.66 5 -1.32 5 -2 5 C-2.2475 5.556875 -2.495 6.11375 -2.75 6.6875 C-4 9 -4 9 -5.9375 11.375 C-8.86089598 15.09568579 -10.63453762 18.78940586 -12 23.3125 C-12.33 24.199375 -12.66 25.08625 -13 26 C-13.99 26.33 -14.98 26.66 -16 27 C-15.79095746 17.80212803 -9.75165971 9.81678188 -4 3 C-1.9375 1.125 -1.9375 1.125 0 0 Z " fill="#20557E" transform="translate(46,24)"/>
<path d="M0 0 C1.65 0.33 3.3 0.66 5 1 C5 1.99 5 2.98 5 4 C5.99 4 6.98 4 8 4 C8.99 5.485 8.99 5.485 10 7 C10.66 7 11.32 7 12 7 C13.625 9 13.625 9 15 11 C9.375 13 9.375 13 6 13 C6 12.01 6 11.02 6 10 C5.34 10 4.68 10 4 10 C1.375 7.6875 1.375 7.6875 -1 5 C-1 2 -1 2 0 0 Z " fill="#7C7D7E" transform="translate(44,29)"/>
<path d="M0 0 C1 2 1 2 0.35546875 4.45703125 C-1.28774013 7.53982369 -2.547626 8.24017676 -5.6875 9.6875 C-6.57566406 10.09742187 -7.46382812 10.50734375 -8.37890625 10.9296875 C-11.56093545 12.22905561 -14.65907472 13.20108309 -18 14 C-18 12.68 -18 11.36 -18 10 C-16.02 10 -14.04 10 -12 10 C-12 9.34 -12 8.68 -12 8 C-12.66 7.34 -13.32 6.68 -14 6 C-8.375 4 -8.375 4 -5 4 C-4.67 3.01 -4.34 2.02 -4 1 C-1.9375 0.3125 -1.9375 0.3125 0 0 Z " fill="#7C8284" transform="translate(112,106)"/>
<path d="M0 0 C0.125 2.875 0.125 2.875 0 6 C-2 8 -2 8 -5.625 8.125 C-6.73875 8.08375 -7.8525 8.0425 -9 8 C-9 7.34 -9 6.68 -9 6 C-12.3 6 -15.6 6 -19 6 C-19 5.67 -19 5.34 -19 5 C-17.02 5 -15.04 5 -13 5 C-13.33 4.01 -13.66 3.02 -14 2 C-12.4176994 1.66179834 -10.83410625 1.32964061 -9.25 1 C-8.36828125 0.814375 -7.4865625 0.62875 -6.578125 0.4375 C-4 0 -4 0 0 0 Z " fill="#5C5C5C" transform="translate(157,38)"/>
<path d="M0 0 C0.66 2.31 1.32 4.62 2 7 C1.01 7 0.02 7 -1 7 C-1 6.34 -1 5.68 -1 5 C-2.32 4.67 -3.64 4.34 -5 4 C-5.76173392 8.3164922 -6.16063604 11.74433453 -5 16 C-5.66 15.67 -6.32 15.34 -7 15 C-7 14.34 -7 13.68 -7 13 C-7.99 13 -8.98 13 -10 13 C-10 12.01 -10 11.02 -10 10 C-10.99 10 -11.98 10 -13 10 C-13 9.01 -13 8.02 -13 7 C-12.34 7 -11.68 7 -11 7 C-11 6.34 -11 5.68 -11 5 C-9.35546875 3.7109375 -9.35546875 3.7109375 -7.1875 2.375 C-6.47980469 1.92898437 -5.77210937 1.48296875 -5.04296875 1.0234375 C-3 0 -3 0 0 0 Z " fill="#89929A" transform="translate(59,20)"/>
<path d="M0 0 C0.33 0.66 0.66 1.32 1 2 C0.34 2 -0.32 2 -1 2 C-1 4.31 -1 6.62 -1 9 C-2.65 8.67 -4.3 8.34 -6 8 C-6.33 8.99 -6.66 9.98 -7 11 C-7.99 11.66 -8.98 12.32 -10 13 C-10.33 13.66 -10.66 14.32 -11 15 C-12.98 15 -14.96 15 -17 15 C-16.625 12.0625 -16.625 12.0625 -16 9 C-15.34 8.67 -14.68 8.34 -14 8 C-14 8.66 -14 9.32 -14 10 C-12.35 10 -10.7 10 -9 10 C-8.87625 9.4225 -8.7525 8.845 -8.625 8.25 C-7.95166524 5.82599488 -7.44928906 4.07041295 -6 2 C-2.875 0.75 -2.875 0.75 0 0 Z " fill="#3E4043" transform="translate(41,43)"/>
<path d="M0 0 C2.625 1.3125 2.625 1.3125 5 3 C5 3.66 5 4.32 5 5 C5.66 5 6.32 5 7 5 C10.07692308 10.29230769 10.07692308 10.29230769 9.6875 13.875 C9.460625 14.57625 9.23375 15.2775 9 16 C5.17475764 14.549046 3.80909034 12.61818068 2 9 C2 8.34 2 7.68 2 7 C1.34 7 0.68 7 0 7 C0 6.01 0 5.02 0 4 C-0.66 4 -1.32 4 -2 4 C-2 3.01 -2 2.02 -2 1 C-1.34 0.67 -0.68 0.34 0 0 Z " fill="#313538" transform="translate(122,25)"/>
<path d="M0 0 C1.48285242 0.95262034 2.96118201 1.91228405 4.4375 2.875 C5.67306641 3.67550781 5.67306641 3.67550781 6.93359375 4.4921875 C9 6 9 6 10 8 C12.01669827 9.13350534 12.01669827 9.13350534 14 10 C14 10.66 14 11.32 14 12 C14.66 12.33 15.32 12.66 16 13 C7.60863477 12.24416012 2.7690418 10.18229694 -3 4 C-2.67 3.01 -2.34 2.02 -2 1 C-1.34 0.67 -0.68 0.34 0 0 Z " fill="#404143" transform="translate(41,100)"/>
<path d="M0 0 C0.66 0.33 1.32 0.66 2 1 C2 2.98 2 4.96 2 7 C1.01 7 0.02 7 -1 7 C0.32 7.33 1.64 7.66 3 8 C2.67 10.97 2.34 13.94 2 17 C-1 13.25 -1 13.25 -1 11 C-1.66 11 -2.32 11 -3 11 C-3 10.34 -3 9.68 -3 9 C-4.65 9 -6.3 9 -8 9 C-6.68 8.34 -5.36 7.68 -4 7 C-4.33 6.01 -4.66 5.02 -5 4 C-3.35 2.68 -1.7 1.36 0 0 Z " fill="#636363" transform="translate(64,56)"/>
<path d="M0 0 C5.28 0 10.56 0 16 0 C13.91724979 4.16550041 13.09745791 5.14638809 9 7 C6.6875 6.6875 6.6875 6.6875 5 6 C5.33 5.34 5.66 4.68 6 4 C5.01 4 4.02 4 3 4 C3 3.01 3 2.02 3 1 C2.01 1.33 1.02 1.66 0 2 C0 1.34 0 0.68 0 0 Z " fill="#434648" transform="translate(102,59)"/>
<path d="M0 0 C-0.99 0.33 -1.98 0.66 -3 1 C-3 1.66 -3 2.32 -3 3 C0.63 3 4.26 3 8 3 C7.01 3.99 6.02 4.98 5 6 C2.99363529 5.70740515 0.99285937 5.37366113 -1 5 C-4.16666667 6.83333333 -4.16666667 6.83333333 -6 10 C-6 9.01 -6 8.02 -6 7 C-6.66 7 -7.32 7 -8 7 C-8 6.34 -8 5.68 -8 5 C-8.99 4.67 -9.98 4.34 -11 4 C-9.68 3.67 -8.36 3.34 -7 3 C-7 2.34 -7 1.68 -7 1 C-4.53721199 -0.231394 -2.7204945 -0.07159196 0 0 Z " fill="#2F2F31" transform="translate(50,85)"/>
<path d="M0 0 C6.45892714 -0.40368295 11.06108578 0.4084738 17 3 C16.67 3.66 16.34 4.32 16 5 C14.08364783 5.05423638 12.16685075 5.09289963 10.25 5.125 C8.64898437 5.15980469 8.64898437 5.15980469 7.015625 5.1953125 C4.07529894 5.00487687 2.47638122 4.52670104 0 3 C0 2.01 0 1.02 0 0 Z " fill="#4186B2" transform="translate(98,67)"/>
<path d="M0 0 C1.32 0 2.64 0 4 0 C4 0.66 4 1.32 4 2 C4.99 2 5.98 2 7 2 C7.33 2.66 7.66 3.32 8 4 C9.32 2.68 10.64 1.36 12 0 C12.99 1.65 13.98 3.3 15 5 C14.01 6.485 14.01 6.485 13 8 C12.01 7.34 11.02 6.68 10 6 C9.67 6.66 9.34 7.32 9 8 C4.90694544 6.34703566 1.41016497 4.86453858 -2 2 C-1.34 2 -0.68 2 0 2 C0 1.34 0 0.68 0 0 Z " fill="#2E4A5E" transform="translate(104,17)"/>
<path d="M0 0 C1.65 0 3.3 0 5 0 C5.33 0.99 5.66 1.98 6 3 C6.66 3.33 7.32 3.66 8 4 C8 4.66 8 5.32 8 6 C8.66 6 9.32 6 10 6 C10 6.99 10 7.98 10 9 C10.66 9 11.32 9 12 9 C12 9.66 12 10.32 12 11 C12.66 11.33 13.32 11.66 14 12 C11.54561886 12.87656469 10.40438297 13.15930238 7.9375 12.1875 C6.26725575 11.16380191 4.62998496 10.08665664 3 9 C3.66 8.01 4.32 7.02 5 6 C4.99530794 3.89768759 4.99530794 3.89768759 4 2 C2.0162233 0.71563266 2.0162233 0.71563266 0 0 Z " fill="#1F3240" transform="translate(34,86)"/>
<path d="M0 0 C4.95 0.99 4.95 0.99 10 2 C10 2.66 10 3.32 10 4 C9.34 4 8.68 4 8 4 C8 4.66 8 5.32 8 6 C8.763125 5.79375 9.52625 5.5875 10.3125 5.375 C13 5 13 5 16 7 C13.69 7 11.38 7 9 7 C8.67 7.66 8.34 8.32 8 9 C7.67 8.34 7.34 7.68 7 7 C5.02 7.33 3.04 7.66 1 8 C0.67 5.36 0.34 2.72 0 0 Z " fill="#939393" transform="translate(71,53)"/>
<path d="M0 0 C0.99 0.33 1.98 0.66 3 1 C1.5361389 5.39158329 -0.97831338 5.87947433 -5 8 C-4.01 8.66 -3.02 9.32 -2 10 C-8.4 11.35384615 -8.4 11.35384615 -11.4375 9.5625 C-11.953125 9.046875 -12.46875 8.53125 -13 8 C-11.865625 7.54625 -10.73125 7.0925 -9.5625 6.625 C-5.95278308 5.42904194 -5.95278308 5.42904194 -5 3 C-3.68352881 2.30062468 -2.34977849 1.63270867 -1 1 C-0.67 0.67 -0.34 0.34 0 0 Z " fill="#3E698A" transform="translate(100,104)"/>
<path d="M0 0 C2.16874252 0.50603992 3.99967627 0.99983813 6 2 C6.33 1.34 6.66 0.68 7 0 C7.33 0.99 7.66 1.98 8 3 C8.99 2.01 9.98 1.02 11 0 C12.32 0.99 13.64 1.98 15 3 C14.34 3 13.68 3 13 3 C13 3.99 13 4.98 13 6 C9.37 6 5.74 6 2 6 C1.34 4.02 0.68 2.04 0 0 Z " fill="#232222" transform="translate(8,78)"/>
<path d="M0 0 C0.99 0.33 1.98 0.66 3 1 C1.515 2.485 1.515 2.485 0 4 C5.28 4.66 10.56 5.32 16 6 C16 6.33 16 6.66 16 7 C8.74 7 1.48 7 -6 7 C-4.14418503 3.28837006 -3.44285416 1.98224936 0 0 Z " fill="#757571" transform="translate(110,73)"/>
<path d="M0 0 C0.33 1.65 0.66 3.3 1 5 C-0.95803507 5.05389087 -2.91648909 5.09274217 -4.875 5.125 C-5.96554688 5.14820313 -7.05609375 5.17140625 -8.1796875 5.1953125 C-11 5 -11 5 -13 3 C-9.39091002 -0.60908998 -4.88215348 -0.11353845 0 0 Z " fill="#555858" transform="translate(77,6)"/>
<path d="M0 0 C-0.99 0 -1.98 0 -3 0 C-2.67 0.99 -2.34 1.98 -2 3 C-17.74487472 3.18451025 -17.74487472 3.18451025 -25 2 C-25 1.67 -25 1.34 -25 1 C-22.9174133 0.80438131 -20.83388144 0.61880687 -18.75 0.4375 C-17.58984375 0.33308594 -16.4296875 0.22867188 -15.234375 0.12109375 C-12.48128523 0.01801913 -10.580018 0.13786527 -8 1 C-7.67 0.34 -7.34 -0.32 -7 -1 C-3.58234953 -2.36706019 -3.25800204 -2.17200136 0 0 Z " fill="#252322" transform="translate(35,83)"/>
<path d="M0 0 C1.4540625 0.0309375 1.4540625 0.0309375 2.9375 0.0625 C2.625 2.9375 2.625 2.9375 1.9375 6.0625 C-1.0625 8.0625 -1.0625 8.0625 -3.0625 9.0625 C-3.0625 8.4025 -3.0625 7.7425 -3.0625 7.0625 C-4.3825 6.7325 -5.7025 6.4025 -7.0625 6.0625 C-3.52966102 0.0720339 -3.52966102 0.0720339 0 0 Z " fill="#272727" transform="translate(148.0625,48.9375)"/>
<path d="M0 0 C3.63 1.32 7.26 2.64 11 4 C7 7 7 7 3.6875 6.9375 C-0.52651383 5.86614055 -3.34245648 4.31395611 -7 2 C-4.3333581 0.66667905 -2.83319697 1.32897967 0 2 C0 1.34 0 0.68 0 0 Z " fill="#393D40" transform="translate(55,110)"/>
<path d="M0 0 C0.66 0 1.32 0 2 0 C1.67 0.99 1.34 1.98 1 3 C0.01 3 -0.98 3 -2 3 C-1.67 3.66 -1.34 4.32 -1 5 C-0.01 5.33 0.98 5.66 2 6 C1.125 10.875 1.125 10.875 0 12 C-2.53049402 12.07313567 -5.03304837 12.09247527 -7.5625 12.0625 C-8.62887695 12.05573242 -8.62887695 12.05573242 -9.71679688 12.04882812 C-11.47790013 12.03700864 -13.23896036 12.01907263 -15 12 C-15 11.67 -15 11.34 -15 11 C-9.06 10.505 -9.06 10.505 -3 10 C-2.67 8.68 -2.34 7.36 -2 6 C-2.99 6 -3.98 6 -5 6 C-4.34 4.68 -3.68 3.36 -3 2 C-2.01 2 -1.02 2 0 2 C0 1.34 0 0.68 0 0 Z " fill="#354654" transform="translate(129,60)"/>
<path d="M0 0 C0.99 0 1.98 0 3 0 C3 0.66 3 1.32 3 2 C10.92 2 18.84 2 27 2 C24.06552643 4.93447357 20.81740544 4.46158423 16.875 4.625 C16.12089844 4.66367188 15.36679688 4.70234375 14.58984375 4.7421875 C12.72696816 4.83651031 10.86351745 4.91934662 9 5 C9.66 5.66 10.32 6.32 11 7 C7.88452559 6.32116957 5.14862279 5.25893098 2.25 3.9375 C1.45078125 3.57527344 0.6515625 3.21304688 -0.171875 2.83984375 C-0.77515625 2.56269531 -1.3784375 2.28554687 -2 2 C-1.34 1.34 -0.68 0.68 0 0 Z " fill="#295473" transform="translate(62,109)"/>
<path d="M0 0 C0.66 0.33 1.32 0.66 2 1 C2.33 2.65 2.66 4.3 3 6 C-2.61 5.67 -8.22 5.34 -14 5 C-13.34 4.01 -12.68 3.02 -12 2 C-9.9898178 1.96757771 -7.97729611 1.94392191 -5.96875 2.03125 C-3.56365389 1.99307387 -2.05959572 1.1882283 0 0 Z " fill="#2B2928" transform="translate(130,47)"/>
<path d="M0 0 C1.11375 0.185625 1.11375 0.185625 2.25 0.375 C0.5 4.25 0.5 4.25 -1.75 5.375 C-1.688125 6.2825 -1.62625 7.19 -1.5625 8.125 C-1.76672076 11.66482642 -2.39551835 12.82431155 -4.75 15.375 C-4.42 13.725 -4.09 12.075 -3.75 10.375 C-5.07 10.375 -6.39 10.375 -7.75 10.375 C-7.02950173 5.69176122 -5.01188102 0.68343832 0 0 Z " fill="#767D83" transform="translate(34.75,30.625)"/>
<path d="M0 0 C4.49459524 0.70228051 8.90610041 2.00087613 13 4 C13.33 4.66 13.66 5.32 14 6 C9.97217261 6.88612202 7.55842619 7.19648329 3.625 5.8125 C1 4 1 4 0.125 1.8125 C0.08375 1.214375 0.0425 0.61625 0 0 Z " fill="#496D86" transform="translate(93,12)"/>
<path d="M0 0 C5.445 1.485 5.445 1.485 11 3 C6.91910537 6.52942238 5.31602261 7 0 7 C0.33 5.68 0.66 4.36 1 3 C0.34 2.67 -0.32 2.34 -1 2 C-0.67 1.34 -0.34 0.68 0 0 Z " fill="#3F3F3F" transform="translate(137,45)"/>
<path d="M0 0 C0 1.32 0 2.64 0 4 C-1.32 4 -2.64 4 -4 4 C-4 4.99 -4 5.98 -4 7 C-6.31 7.66 -8.62 8.32 -11 9 C-11 7.68 -11 6.36 -11 5 C-9.02 5 -7.04 5 -5 5 C-5 4.34 -5 3.68 -5 3 C-5.66 2.34 -6.32 1.68 -7 1 C-3.375 -1.125 -3.375 -1.125 0 0 Z " fill="#67747B" transform="translate(105,111)"/>
<path d="M0 0 C0.33 0.66 0.66 1.32 1 2 C3.02463255 2.65213292 3.02463255 2.65213292 5 3 C2.19195732 5.96404505 -0.18315774 8.44499019 -4 10 C-3.67 8.35 -3.34 6.7 -3 5 C-3.66 4.67 -4.32 4.34 -5 4 C-3.35 2.68 -1.7 1.36 0 0 Z " fill="#999EA2" transform="translate(115,102)"/>
<path d="M0 0 C-0.33 1.65 -0.66 3.3 -1 5 C-2.8253125 5.2165625 -2.8253125 5.2165625 -4.6875 5.4375 C-7.82670377 5.82780953 -10.9075134 6.32351856 -14 7 C-11.74449632 3.61674448 -10.69070741 3.21260848 -7 1.8125 C-6.113125 1.46832031 -5.22625 1.12414062 -4.3125 0.76953125 C-2 0 -2 0 0 0 Z " fill="#1C5078" transform="translate(108,106)"/>
<path d="M0 0 C-0.37156474 2.69384434 -0.75494175 3.7802926 -2.8125 5.625 C-6.87022901 8.17557252 -6.87022901 8.17557252 -9 9 C-9.99 8.67 -10.98 8.34 -12 8 C-11.34 7.67 -10.68 7.34 -10 7 C-9.938125 6.38125 -9.87625 5.7625 -9.8125 5.125 C-9 3 -9 3 -5.5625 1.25 C-2 0 -2 0 0 0 Z " fill="#7C8A93" transform="translate(113,98)"/>
<path d="M0 0 C1.58294782 -0.05437607 3.16644256 -0.09296271 4.75 -0.125 C5.63171875 -0.14820312 6.5134375 -0.17140625 7.421875 -0.1953125 C10.16365272 0.01239793 11.71590695 0.49086709 14 2 C15.25 4.625 15.25 4.625 16 7 C14.02 7.99 14.02 7.99 12 9 C9 4.375 9 4.375 9 1 C8.071875 1.20625 7.14375 1.4125 6.1875 1.625 C3 2 3 2 0 0 Z " fill="#637D94" transform="translate(24,86)"/>
<path d="M0 0 C2.31 0.33 4.62 0.66 7 1 C7 1.99 7 2.98 7 4 C9.31 4.33 11.62 4.66 14 5 C13.67 5.99 13.34 6.98 13 8 C8.8333396 7.52651586 6.07115285 6.95303159 3 4 C3 3.34 3 2.68 3 2 C2.01 1.67 1.02 1.34 0 1 C0 0.67 0 0.34 0 0 Z " fill="#232C35" transform="translate(47,99)"/>
<path d="M0 0 C1.58538318 2.51796153 2.0373656 3.67865586 1.6875 6.6875 C1 9 1 9 0 10 C-1.66617115 10.04063832 -3.33388095 10.042721 -5 10 C-5 6 -5 6 -3.0625 3.875 C-2.0415625 2.946875 -2.0415625 2.946875 -1 2 C-0.67 1.34 -0.34 0.68 0 0 Z " fill="#5F6266" transform="translate(128,87)"/>
<path d="M0 0 C-0.66 0.66 -1.32 1.32 -2 2 C-4.75589777 1.98252073 -7.38786676 1.86136729 -10.125 1.625 C-10.87910156 1.56828125 -11.63320312 1.5115625 -12.41015625 1.453125 C-14.27418096 1.3115535 -16.13721137 1.15700041 -18 1 C-16 -2 -16 -2 -13.828125 -2.6171875 C-8.30774877 -3.16922512 -4.82510705 -3.17441253 0 0 Z " fill="#194B6A" transform="translate(95,14)"/>
<path d="M0 0 C3.26460973 1.80412643 4.88929795 2.83394693 7 6 C5.35 6 3.7 6 2 6 C2 6.66 2 7.32 2 8 C-0.88437779 6.70700306 -2.87219421 5.34058637 -5 3 C-3.33333333 3 -1.66666667 3 0 3 C0 2.01 0 1.02 0 0 Z " fill="#6F797C" transform="translate(118,20)"/>
<path d="M0 0 C4.29 0 8.58 0 13 0 C13.33 0.99 13.66 1.98 14 3 C12.22992286 3.08114106 10.45877902 3.13925505 8.6875 3.1875 C7.70136719 3.22230469 6.71523437 3.25710937 5.69921875 3.29296875 C3 3 3 3 0 0 Z " fill="#1E6395" transform="translate(112,68)"/>
<path d="M0 0 C7.35174806 -0.55253221 12.511583 0.48935892 19 4 C14.70272603 5.30660357 11.39784135 4.6596762 7 4 C7 3.34 7 2.68 7 2 C5.02 2 3.04 2 1 2 C0.67 1.34 0.34 0.68 0 0 Z " fill="#273941" transform="translate(83,15)"/>
<path d="M0 0 C2.64 0 5.28 0 8 0 C8.66 1.32 9.32 2.64 10 4 C8.68 4.99 7.36 5.98 6 7 C6 6.01 6 5.02 6 4 C5.01 4 4.02 4 3 4 C3 3.34 3 2.68 3 2 C2.01 1.67 1.02 1.34 0 1 C0 0.67 0 0.34 0 0 Z " fill="#292C2F" transform="translate(105,15)"/>
<path d="M0 0 C0.33 0.33 0.66 0.66 1 1 C3.32817964 1.36760731 5.6618385 1.70241581 8 2 C7.34 2.66 6.68 3.32 6 4 C4.33333333 4 2.66666667 4 1 4 C-1.73774618 4.92745649 -1.73774618 4.92745649 -4 6 C-3.67 5.34 -3.34 4.68 -3 4 C-2.34 4 -1.68 4 -1 4 C-1.66 3.34 -2.32 2.68 -3 2 C-3.99 2.33 -4.98 2.66 -6 3 C-6.66 2.34 -7.32 1.68 -8 1 C-2.25 -1.125 -2.25 -1.125 0 0 Z " fill="#7F8C95" transform="translate(65,9)"/>
<path d="M0 0 C1.65 0 3.3 0 5 0 C5.66 1.65 6.32 3.3 7 5 C6.01 5.33 5.02 5.66 4 6 C3.67 6.99 3.34 7.98 3 9 C0 3.375 0 3.375 0 0 Z " fill="#4E4E4B" transform="translate(28,87)"/>
<path d="M0 0 C0.99 0 1.98 0 3 0 C4.25664978 2.90600261 5 4.79604584 5 8 C3.35 8 1.7 8 0 8 C-1.125 2.25 -1.125 2.25 0 0 Z " fill="#7A7E7D" transform="translate(94,67)"/>
<path d="M0 0 C0.33 0.66 0.66 1.32 1 2 C0.34 2 -0.32 2 -1 2 C-1 4.31 -1 6.62 -1 9 C-2.32 8.67 -3.64 8.34 -5 8 C-5 7.34 -5 6.68 -5 6 C-5.66 6 -6.32 6 -7 6 C-6.875 4.125 -6.875 4.125 -6 2 C-2.9375 0.75 -2.9375 0.75 0 0 Z " fill="#4C4E4D" transform="translate(41,43)"/>
<path d="M0 0 C2.475 0.99 2.475 0.99 5 2 C4.67 3.65 4.34 5.3 4 7 C3.01 6.67 2.02 6.34 1 6 C1 5.34 1 4.68 1 4 C-1.31 4.33 -3.62 4.66 -6 5 C-6.33 4.34 -6.66 3.68 -7 3 C-6.34 3 -5.68 3 -5 3 C-5 2.34 -5 1.68 -5 1 C-3.68 1.33 -2.36 1.66 -1 2 C-0.67 1.34 -0.34 0.68 0 0 Z " fill="#596364" transform="translate(132,38)"/>
<path d="M0 0 C0.99 0 1.98 0 3 0 C3 0.99 3 1.98 3 3 C3.99 2.67 4.98 2.34 6 2 C6 2.66 6 3.32 6 4 C6.99 4 7.98 4 9 4 C8.34 5.32 7.68 6.64 7 8 C6.01 8 5.02 8 4 8 C4 6.68 4 5.36 4 4 C3.01 4.33 2.02 4.66 1 5 C0.67 3.35 0.34 1.7 0 0 Z " fill="#6C6C6C" transform="translate(47,39)"/>
<path d="M0 0 C2.31 0 4.62 0 7 0 C6.67 0.66 6.34 1.32 6 2 C6.99 2.99 7.98 3.98 9 5 C5.58900832 5 2.36911686 4.50854594 -1 4 C-0.67 2.68 -0.34 1.36 0 0 Z " fill="#31383B" transform="translate(91,8)"/>
<path d="M0 0 C3.375 -0.1875 3.375 -0.1875 7 0 C7.66 0.99 8.32 1.98 9 3 C8 4 8 4 5.93359375 4.09765625 C5.10988281 4.08605469 4.28617187 4.07445313 3.4375 4.0625 C2.61121094 4.05347656 1.78492187 4.04445313 0.93359375 4.03515625 C0.29550781 4.02355469 -0.34257813 4.01195313 -1 4 C-0.67 2.68 -0.34 1.36 0 0 Z " fill="#848384" transform="translate(81,61)"/>
<path d="M0 0 C0.33 0 0.66 0 1 0 C1 1.65 1 3.3 1 5 C1.66 5 2.32 5 3 5 C3 5.66 3 6.32 3 7 C1.33388095 7.042721 -0.33382885 7.04063832 -2 7 C-2.33 6.67 -2.66 6.34 -3 6 C-3.33 6.66 -3.66 7.32 -4 8 C-4.99 7.67 -5.98 7.34 -7 7 C-6.67 5.68 -6.34 4.36 -6 3 C-5.195625 2.87625 -4.39125 2.7525 -3.5625 2.625 C-2.716875 2.41875 -1.87125 2.2125 -1 2 C-0.67 1.34 -0.34 0.68 0 0 Z " fill="#6C767C" transform="translate(29,46)"/>
<path d="M0 0 C0.33 0.99 0.66 1.98 1 3 C1.99 3.33 2.98 3.66 4 4 C2.68 4.33 1.36 4.66 0 5 C0 5.66 0 6.32 0 7 C-1.62626404 8.38232443 -3.2925002 9.71937515 -5 11 C-5.625 9.125 -5.625 9.125 -6 7 C-4 5 -4 5 -2 4 C-0.86649466 1.98330173 -0.86649466 1.98330173 0 0 Z " fill="#9A9B9C" transform="translate(93,72)"/>
<path d="M0 0 C0.66 1.32 1.32 2.64 2 4 C2.99 4 3.98 4 5 4 C2.36 6.31 -0.28 8.62 -3 11 C-3.66 10.67 -4.32 10.34 -5 10 C-4.525625 9.566875 -4.05125 9.13375 -3.5625 8.6875 C-1.76313043 6.97690387 -1.76313043 6.97690387 -1 4 C-1.99 3.67 -2.98 3.34 -4 3 C-2.68 2.01 -1.36 1.02 0 0 Z " fill="#99A8B5" transform="translate(47,16)"/>
<path d="M0 0 C0.66 0 1.32 0 2 0 C2 1.65 2 3.3 2 5 C3.98 5 5.96 5 8 5 C8 6.32 8 7.64 8 9 C7.01 9.33 6.02 9.66 5 10 C5 9.34 5 8.68 5 8 C3.35 7.67 1.7 7.34 0 7 C0 4.69 0 2.38 0 0 Z " fill="#767777" transform="translate(86,81)"/>
<path d="M0 0 C0.33 0.99 0.66 1.98 1 3 C2.32 3 3.64 3 5 3 C3.60667426 6.36720387 2.0210714 7.9859524 -1 10 C-1.125 3.375 -1.125 3.375 0 0 Z " fill="#808486" transform="translate(122,94)"/>
<path d="M0 0 C-1.01176437 3.40320742 -1.64843582 4.75725331 -4.625 6.8125 C-5.40875 7.204375 -6.1925 7.59625 -7 8 C-7.33 6.68 -7.66 5.36 -8 4 C-2.7826087 0 -2.7826087 0 0 0 Z " fill="#647788" transform="translate(120,92)"/>
<path d="M0 0 C-0.33 1.65 -0.66 3.3 -1 5 C-1.99 5 -2.98 5 -4 5 C-4 4.01 -4 3.02 -4 2 C-8.62 2 -13.24 2 -18 2 C-18 1.67 -18 1.34 -18 1 C-15.37504621 0.83257698 -12.75004205 0.6660283 -10.125 0.5 C-9.00544922 0.42845703 -9.00544922 0.42845703 -7.86328125 0.35546875 C-2.2265625 0 -2.2265625 0 0 0 Z " fill="#6D8498" transform="translate(128,83)"/>
<path d="M0 0 C0.66 1.32 1.32 2.64 2 4 C0.68 4.99 -0.64 5.98 -2 7 C-2.66 6.34 -3.32 5.68 -4 5 C-4.66 5 -5.32 5 -6 5 C-6.33 3.68 -6.66 2.36 -7 1 C-3.535 0.505 -3.535 0.505 0 0 Z " fill="#2F2F2F" transform="translate(65,84)"/>
<path d="M0 0 C-0.33 0.66 -0.66 1.32 -1 2 C-2.98 2 -4.96 2 -7 2 C-7 3.32 -7 4.64 -7 6 C-8.32 6 -9.64 6 -11 6 C-9.84826645 3.53199953 -8.95216435 1.95216435 -7 0 C-3.99340864 -1.066855 -3.14820941 -1.04940314 0 0 Z " fill="#494F53" transform="translate(101,114)"/>
<path d="M0 0 C-0.99 0.33 -1.98 0.66 -3 1 C-4.16666667 2.91666667 -4.16666667 2.91666667 -5 5 C-5.33 5.66 -5.66 6.32 -6 7 C-6.66 7 -7.32 7 -8 7 C-8 6.34 -8 5.68 -8 5 C-8.99 4.67 -9.98 4.34 -11 4 C-9.68 3.67 -8.36 3.34 -7 3 C-7 2.34 -7 1.68 -7 1 C-4.53721199 -0.231394 -2.7204945 -0.07159196 0 0 Z " fill="#262627" transform="translate(50,85)"/>
<path d="M0 0 C1.32 0 2.64 0 4 0 C4.33 0.66 4.66 1.32 5 2 C7.52733235 2.65555119 7.52733235 2.65555119 10 3 C10 3.33 10 3.66 10 4 C5.66914029 5.29925791 1.48525648 6.343621 -3 7 C-3 6.34 -3 5.68 -3 5 C-2.34 5 -1.68 5 -1 5 C-1 4.34 -1 3.68 -1 3 C-0.34 3.33 0.32 3.66 1 4 C1.33 3.67 1.66 3.34 2 3 C1.34 2.67 0.68 2.34 0 2 C0 1.34 0 0.68 0 0 Z " fill="#848482" transform="translate(87,51)"/>
<path d="M0 0 C0.33 0.66 0.66 1.32 1 2 C4.465 1.505 4.465 1.505 8 1 C8.33 1.99 8.66 2.98 9 4 C5.90521121 5.03159626 4.47368607 4.97482862 1.3125 4.5625 C0.10013672 4.40974609 0.10013672 4.40974609 -1.13671875 4.25390625 C-1.75160156 4.17011719 -2.36648437 4.08632812 -3 4 C-2.01 3.67 -1.02 3.34 0 3 C0 2.01 0 1.02 0 0 Z " fill="#242223" transform="translate(23,69)"/>
<path d="M0 0 C4.75 0.875 4.75 0.875 7 2 C6.67 2.99 6.34 3.98 6 5 C3.36 4.67 0.72 4.34 -2 4 C-1.34 2.68 -0.68 1.36 0 0 Z " fill="#6A6A6A" transform="translate(61,51)"/>
<path d="M0 0 C2.9375 0.8125 2.9375 0.8125 6 2 C6.33 2.99 6.66 3.98 7 5 C7.66 5.33 8.32 5.66 9 6 C4.545 5.01 4.545 5.01 0 4 C0 2.68 0 1.36 0 0 Z " fill="#222529" transform="translate(48,107)"/>
<path d="M0 0 C-0.33 1.32 -0.66 2.64 -1 4 C-3.64 4 -6.28 4 -9 4 C-9 3.34 -9 2.68 -9 2 C-5.86501708 0.14223235 -3.62528568 -0.20140476 0 0 Z " fill="#5D5F5F" transform="translate(74,36)"/>
<path d="M0 0 C3.40312738 1.05875074 6.01353231 2.00902154 9 4 C8.34 4 7.68 4 7 4 C7.99 5.65 8.98 7.3 10 9 C6.55729549 7.46990911 3.81074178 5.5068778 1 3 C0.67 2.01 0.34 1.02 0 0 Z " fill="#7392A9" transform="translate(38,96)"/>
<path d="M0 0 C0.66 2.31 1.32 4.62 2 7 C1.01 7 0.02 7 -1 7 C-1 6.34 -1 5.68 -1 5 C-1.66 5 -2.32 5 -3 5 C-3 4.01 -3 3.02 -3 2 C-3.66 1.67 -4.32 1.34 -5 1 C-3 0 -3 0 0 0 Z " fill="#7F858E" transform="translate(59,20)"/>
<path d="M0 0 C0 0.66 0 1.32 0 2 C-4.455 3.485 -4.455 3.485 -9 5 C-9 4.01 -9 3.02 -9 2 C-5.86501708 0.14223235 -3.62528568 -0.20140476 0 0 Z " fill="#4C4C4C" transform="translate(64,55)"/>
<path d="M0 0 C-0.33 0.66 -0.66 1.32 -1 2 C-3.97 2 -6.94 2 -10 2 C-9.67 1.01 -9.34 0.02 -9 -1 C-5.79937313 -2.60031344 -3.27728194 -1.03173691 0 0 Z " fill="#545454" transform="translate(58,51)"/>
<path d="M0 0 C1.93166016 0.01740234 1.93166016 0.01740234 3.90234375 0.03515625 C5.19269531 0.04417969 6.48304687 0.05320312 7.8125 0.0625 C8.81152344 0.07410156 9.81054688 0.08570312 10.83984375 0.09765625 C10.83984375 0.42765625 10.83984375 0.75765625 10.83984375 1.09765625 C9.59267578 1.18853516 9.59267578 1.18853516 8.3203125 1.28125 C6.69029297 1.40693359 6.69029297 1.40693359 5.02734375 1.53515625 C3.94839844 1.61636719 2.86945313 1.69757813 1.7578125 1.78125 C-1.2200553 1.99978086 -1.2200553 1.99978086 -4.16015625 3.09765625 C-4.49015625 4.08765625 -4.82015625 5.07765625 -5.16015625 6.09765625 C-4.08838165 0.12634059 -4.08838165 0.12634059 0 0 Z " fill="#7C7C7A" transform="translate(79.16015625,71.90234375)"/>
<path d="M0 0 C1.53445094 3.06890187 0.54984289 5.70094266 0 9 C-1.65 9.66 -3.3 10.32 -5 11 C-3.77472971 6.94718288 -2.30119506 3.55639236 0 0 Z " fill="#4D5B66" transform="translate(39,35)"/>
<path d="M0 0 C2.475 0.495 2.475 0.495 5 1 C5.33 2.65 5.66 4.3 6 6 C5.01 6 4.02 6 3 6 C0 2.66666667 0 2.66666667 0 0 Z " fill="#1C5680" transform="translate(45,100)"/>
<path d="M0 0 C0.99 0.33 1.98 0.66 3 1 C2 4 2 4 0 5 C-1.99960012 5.039992 -4.00047242 5.04346799 -6 5 C-4.73775586 2.47551173 -3.49988984 2.17182336 -1 1 C-0.67 0.67 -0.34 0.34 0 0 Z " fill="#636F77" transform="translate(100,104)"/>
<path d="M0 0 C4 4.75 4 4.75 4 7 C1.50638429 5.79618552 -0.68143083 4.54571278 -3 3 C-2.01 2.01 -1.02 1.02 0 0 Z " fill="#1E4D73" transform="translate(40,92)"/>
<path d="M0 0 C2.31 0 4.62 0 7 0 C6.67 0.99 6.34 1.98 6 3 C4.02 3.33 2.04 3.66 0 4 C0 2.68 0 1.36 0 0 Z " fill="#747375" transform="translate(104,86)"/>
<path d="M0 0 C1.32 0.33 2.64 0.66 4 1 C3.125 5.75 3.125 5.75 2 8 C1.34 8 0.68 8 0 8 C0 5.36 0 2.72 0 0 Z " fill="#6F6F6F" transform="translate(149,65)"/>
<path d="M0 0 C0.33 0 0.66 0 1 0 C1 3.96 1 7.92 1 12 C-0.65 12 -2.3 12 -4 12 C-3.51917969 11.60167969 -3.03835937 11.20335938 -2.54296875 10.79296875 C-0.62608175 8.56549753 -0.52258357 7.21165331 -0.3125 4.3125 C-0.21388672 3.10013672 -0.21388672 3.10013672 -0.11328125 1.86328125 C-0.07589844 1.24839844 -0.03851563 0.63351563 0 0 Z " fill="#858687" transform="translate(135,67)"/>
<path d="M0 0 C1.98 0 3.96 0 6 0 C5.1875 1.9375 5.1875 1.9375 4 4 C3.01 4.33 2.02 4.66 1 5 C0.67 3.35 0.34 1.7 0 0 Z " fill="#545353" transform="translate(112,59)"/>
<path d="M0 0 C0.99 0.66 1.98 1.32 3 2 C2.34 3.32 1.68 4.64 1 6 C0.01 5.67 -0.98 5.34 -2 5 C-1.125 1.125 -1.125 1.125 0 0 Z " fill="#5D5F5D" transform="translate(93,48)"/>
<path d="M0 0 C-0.33 1.65 -0.66 3.3 -1 5 C-1.99 5 -2.98 5 -4 5 C-4 4.01 -4 3.02 -4 2 C-4.66 1.67 -5.32 1.34 -6 1 C-3.92446352 0.4465236 -2.15634036 0 0 0 Z " fill="#2C5173" transform="translate(108,106)"/>
<path d="M0 0 C2.3125 -0.25 2.3125 -0.25 5 0 C6.8125 2 6.8125 2 8 4 C7.01 4 6.02 4 5 4 C4.67 3.01 4.34 2.02 4 1 C3.34 1 2.68 1 2 1 C1.67 1.99 1.34 2.98 1 4 C0.67 2.68 0.34 1.36 0 0 Z " fill="#2F2E2D" transform="translate(102,23)"/>
<path d="M0 0 C2.31 0 4.62 0 7 0 C7 0.66 7 1.32 7 2 C4.69 2.66 2.38 3.32 0 4 C0 2.68 0 1.36 0 0 Z " fill="#686968" transform="translate(94,116)"/>
<path d="M0 0 C4.455 0.99 4.455 0.99 9 2 C9 2.99 9 3.98 9 5 C4.89198233 3.81323934 3.10551666 3.10551666 0 0 Z " fill="#646663" transform="translate(48,111)"/>
<path d="M0 0 C0.33 0 0.66 0 1 0 C1 1.98 1 3.96 1 6 C-0.65 5.67 -2.3 5.34 -4 5 C-4 4.01 -4 3.02 -4 2 C-2.68 2 -1.36 2 0 2 C0 1.34 0 0.68 0 0 Z " fill="#898889" transform="translate(103,85)"/>
<path d="M0 0 C1.32 0.33 2.64 0.66 4 1 C3.67 2.98 3.34 4.96 3 7 C1.5 5.75 1.5 5.75 0 4 C0 2.68 0 1.36 0 0 Z " fill="#252424" transform="translate(149,61)"/>
<path d="M0 0 C0.66 0 1.32 0 2 0 C2.33 1.32 2.66 2.64 3 4 C1.02 4.99 1.02 4.99 -1 6 C-1.042721 4.33388095 -1.04063832 2.66617115 -1 1 C-0.67 0.67 -0.34 0.34 0 0 Z " fill="#1F4E71" transform="translate(31,45)"/>
<path d="M0 0 C1.65 0.33 3.3 0.66 5 1 C4.67 1.66 4.34 2.32 4 3 C0.9375 3.625 0.9375 3.625 -2 4 C-2 3.34 -2 2.68 -2 2 C-1.34 2 -0.68 2 0 2 C0 1.34 0 0.68 0 0 Z " fill="#242424" transform="translate(110,38)"/>
<path d="M0 0 C1.32 0 2.64 0 4 0 C5.75 2 5.75 2 7 4 C5.02 4 3.04 4 1 4 C0.67 2.68 0.34 1.36 0 0 Z " fill="#868687" transform="translate(52,36)"/>
<path d="M0 0 C0.6875 1.8125 0.6875 1.8125 1 4 C-0.3125 5.75 -0.3125 5.75 -2 7 C-2.66 7 -3.32 7 -4 7 C-2.92598892 4.08482708 -2.22189824 2.22189824 0 0 Z " fill="#1B486F" transform="translate(41,29)"/>
<path d="M0 0 C0 2.83967231 -0.40267181 5.23735711 -1 8 C-2.32 7.67 -3.64 7.34 -5 7 C-3.70700306 4.11562221 -2.34058637 2.12780579 0 0 Z " fill="#9FA0A0" transform="translate(40,21)"/>
<path d="M0 0 C2.625 1.3125 2.625 1.3125 5 3 C5 3.66 5 4.32 5 5 C3.68 5.33 2.36 5.66 1 6 C0.67 5.01 0.34 4.02 0 3 C-0.66 2.34 -1.32 1.68 -2 1 C-1.34 0.67 -0.68 0.34 0 0 Z " fill="#232421" transform="translate(122,25)"/>
<path d="M0 0 C-4.08443115 1.53166168 -7.79455657 0.63081652 -12 0 C-12 -0.33 -12 -0.66 -12 -1 C-7.28400182 -1.92470553 -4.32734391 -2.22923777 0 0 Z " fill="#7A7A78" transform="translate(22,85)"/>
<path d="M0 0 C0.66 0.33 1.32 0.66 2 1 C2 2.32 2 3.64 2 5 C0.68 5.33 -0.64 5.66 -2 6 C-2 4.68 -2 3.36 -2 2 C-1.34 2 -0.68 2 0 2 C0 1.34 0 0.68 0 0 Z " fill="#2F5068" transform="translate(125,36)"/>
<path d="M0 0 C1 4 1 4 1 4 Z " fill="#D1D1D1" transform="translate(156,87)"/>
</svg>
